<svg xmlns="http://www.w3.org/2000/svg" viewBox="0 0 129.92 37.62"><defs><style>.cls-1{fill:#010201;}.cls-2{fill:#f9f9f9;}.cls-3{fill:#00b563;}.cls-4{fill:#3e3e3e;}</style></defs><g id="Layer_2" data-name="Layer 2"><g id="Layer_1-2" data-name="Layer 1"><path class="cls-1" d="M0,0H129.92V37.62H0ZM44.88,17l.27.05V32.18h4V15.65c-2.12-.28-4.21.34-6.27-.46a2.72,2.72,0,0,0-2.79,1c-.46.45-.83,1-1.29,1.55-.26-.75.14-1.5-.25-2.1H34.72V32.21h4c0-2.71,0-5.36,0-8a6.45,6.45,0,0,1,.51-2.62c.71-1.65,2-1.86,4.18-.74ZM33.79,24.7a10.47,10.47,0,0,0-1.58-7.1,5.55,5.55,0,0,0-8.76-.67A9.44,9.44,0,0,0,21,22.33c-.61-2.6-1.28-4.9-3.35-6.38s-4.19-1.08-6.55,1V4.38H6.94V32.19h4.12V30.62c2.45,2.68,5.26,2.87,7.42.59a9.43,9.43,0,0,0,2-3.62c.18-.56.09-1.21.56-1.71.5,3.72,3.11,6.68,6,6.89a6.12,6.12,0,0,0,6.47-4.44l-2.8-1.93c-1.63,1.79-2.7,2.18-4,1.5a2.69,2.69,0,0,1-1.34-3.2Zm37.33,7.52V4.39H67.05V17.06c-.25-.22-.37-.32-.48-.43-2.49-2.27-5.45-2-7.47.66-2.71,3.58-2.63,10,.17,13.53a4.53,4.53,0,0,0,7.24.31c.16-.17.22-.52.64-.39v1.48Zm13.66-3.79-3-2.09c-.94,1.45-2.13,2.32-3.87,1.59-1.18-.5-1.66-1.6-1.46-3.2H84.9a11.13,11.13,0,0,0-1.22-6.6,5.62,5.62,0,0,0-9.42-.87,10.83,10.83,0,0,0,0,13.44A5.73,5.73,0,0,0,81,32.34,6.91,6.91,0,0,0,84.78,28.43Zm6.94-3.78c-1-2.93-1.81-5.55-2.64-8.19-.16-.52-.3-.89-1-.88-1.38,0-2.75,0-4.24,0C86,21,88,26.21,90,31.47c.37,1,1,.81,1.7.79s1.42.27,1.81-.84c1.35-3.77,2.85-7.5,4.3-11.24.57-1.48,1.14-3,1.77-4.58-1.47,0-2.73,0-4,0-.69,0-1,.17-1.2.89C93.57,19.11,92.67,21.71,91.72,24.65ZM56.33,29a3.65,3.65,0,0,0-.46-2.07,2.47,2.47,0,0,0-2.17-1.57,2.4,2.4,0,0,0-2.18,1.56,4.68,4.68,0,0,0-.21,3.79c.39,1.11,1.06,2.07,2.38,2.06s1.92-.95,2.39-2A5.09,5.09,0,0,0,56.33,29Zm51-25h-4.41v6.21h4.41Zm0,7.34h-4.41v6.23h4.41Zm.79-.06v6.29h4.43V11.23Zm4.43,21.11V26.09h-4.43v6.25Zm.85,0h4.53v-6.3H113.4Zm5.24,0h4.52V26h-4.52Zm-15.75-.08h4.43V26.1h-4.43Zm4.34-7.38V18.7h-4.32v6.19Zm.85.05h4.49V18.69h-4.49Zm9.86,0V18.67h-4.51V25ZM49.73,8.9c.11-1.77-1-3.49-2.34-3.59s-2.55,1.37-2.59,3.3v.14c0,1.81,1.14,3.35,2.45,3.35S49.61,10.67,49.73,8.9Z"/><path class="cls-2" d="M33.79,24.7H25.38a2.69,2.69,0,0,0,1.34,3.2c1.31.68,2.38.29,4-1.5l2.8,1.93a6.12,6.12,0,0,1-6.47,4.44c-2.93-.21-5.54-3.17-6-6.89-.47.5-.38,1.15-.56,1.71a9.43,9.43,0,0,1-2,3.62c-2.16,2.28-5,2.09-7.42-.59v1.57H6.94V4.38h4.12V17c2.36-2.09,4.6-2.42,6.55-1s2.74,3.78,3.35,6.38a9.44,9.44,0,0,1,2.49-5.4,5.55,5.55,0,0,1,8.76.67A10.47,10.47,0,0,1,33.79,24.7Zm-17.28-.65c0-2.36-1.21-4.08-2.85-4s-2.91,2.06-2.7,4.3,1.36,3.64,2.92,3.53S16.5,26.19,16.51,24.05Zm13.17-2.57c0-1.53-.73-2.48-1.9-2.6-1.39-.14-2.15.64-2.48,2.6Z"/><path class="cls-2" d="M71.12,32.22h-4V30.74c-.42-.13-.48.22-.64.39a4.53,4.53,0,0,1-7.24-.31c-2.8-3.49-2.88-9.95-.17-13.53,2-2.67,5-2.93,7.47-.66.11.11.23.21.48.43V4.39h4.07Zm-4-8.34A3,3,0,0,0,66.77,22a2.48,2.48,0,0,0-4.83,0,5.31,5.31,0,0,0-.06,3.92,2.57,2.57,0,0,0,2.59,2,2.64,2.64,0,0,0,2.37-2.07A3.63,3.63,0,0,0,67.1,23.88Z"/><path class="cls-2" d="M44.88,17c-.48,1.28-1,2.55-1.45,3.83-2.19-1.12-3.47-.91-4.18.74a6.45,6.45,0,0,0-.51,2.62c0,2.64,0,5.29,0,8h-4V15.63h3.87c.39.6,0,1.35.25,2.1.46-.55.83-1.1,1.29-1.55a2.72,2.72,0,0,1,2.79-1c2.06.8,4.15.18,6.27.46V32.18h-4V17.07c0-.18.19-.39-.1-.51Z"/><path class="cls-2" d="M84.78,28.43A6.91,6.91,0,0,1,81,32.34,5.73,5.73,0,0,1,74.3,30.7a10.83,10.83,0,0,1,0-13.44,5.62,5.62,0,0,1,9.42.87,11.13,11.13,0,0,1,1.22,6.6H76.46c-.2,1.6.28,2.7,1.46,3.2,1.74.73,2.93-.14,3.87-1.59Zm-8.43-6.95h4.54c-.37-1.88-1-2.61-2.22-2.61S76.82,19.52,76.35,21.48Z"/><path class="cls-2" d="M91.72,24.65c1-2.94,1.85-5.54,2.64-8.18.21-.72.51-.91,1.2-.89,1.26.05,2.52,0,4,0-.63,1.62-1.2,3.1-1.77,4.58-1.45,3.74-3,7.47-4.3,11.24-.39,1.11-1.11.82-1.81.84s-1.33.2-1.7-.79C88,26.21,86,21,83.88,15.6c1.49,0,2.86,0,4.24,0,.66,0,.8.36,1,.88C89.91,19.1,90.77,21.72,91.72,24.65Z"/><path class="cls-2" d="M56.33,29a5.09,5.09,0,0,1-.25,1.72c-.47,1.1-1.08,2-2.39,2s-2-.95-2.38-2.06a4.68,4.68,0,0,1,.21-3.79,2.4,2.4,0,0,1,2.18-1.56,2.47,2.47,0,0,1,2.17,1.57A3.65,3.65,0,0,1,56.33,29Z"/><path class="cls-3" d="M107.34,4v6.21h-4.41V4Z"/><path class="cls-3" d="M107.33,11.29v6.23h-4.41V11.29Z"/><path class="cls-3" d="M108.12,11.23h4.43v6.29h-4.43Z"/><path class="cls-3" d="M112.55,32.34h-4.43V26.09h4.43Z"/><path class="cls-3" d="M113.4,32.35v-6.3h4.53v6.3Z"/><path class="cls-3" d="M118.64,32.35V26h4.52v6.32Z"/><path class="cls-3" d="M102.89,32.27V26.1h4.43v6.17Z"/><path class="cls-3" d="M107.23,24.89h-4.32V18.7h4.32Z"/><path class="cls-3" d="M108.08,24.94V18.69h4.49v6.25Z"/><path class="cls-3" d="M117.94,25h-4.51V18.67h4.51Z"/><path class="cls-2" d="M49.73,8.9c-.12,1.77-1.23,3.2-2.48,3.2s-2.43-1.54-2.45-3.35V8.61c0-1.93,1.2-3.41,2.59-3.3S49.84,7.13,49.73,8.9Z"/><path class="cls-4" d="M44.88,17l.17-.46c.29.12.13.33.1.51Z"/><path class="cls-1" d="M16.51,24.05c0,2.14-1.09,3.71-2.63,3.81s-2.7-1.27-2.92-3.53,1-4.24,2.7-4.3S16.52,21.69,16.51,24.05Z"/><path class="cls-1" d="M29.68,21.48H25.3c.33-2,1.09-2.74,2.48-2.6C29,19,29.64,20,29.68,21.48Z"/><path class="cls-1" d="M67.1,23.88a3.63,3.63,0,0,1-.26,1.9,2.64,2.64,0,0,1-2.37,2.07,2.57,2.57,0,0,1-2.59-2A5.31,5.31,0,0,1,61.94,22a2.48,2.48,0,0,1,4.83,0A3,3,0,0,1,67.1,23.88Z"/><path class="cls-1" d="M76.35,21.48c.47-2,1.07-2.61,2.32-2.61s1.85.73,2.22,2.61Z"/></g></g></svg>