<svg xmlns="http://www.w3.org/2000/svg" viewBox="0 0 1246 709"><defs/><defs><style>.b{opacity:.4}.c{opacity:.5}.d{fill:none;stroke:#000;stroke-miterlimit:10;stroke-width:2px}</style></defs><g opacity=".3"><g class="b"><g class="c"><path d="M109 100v15l-1 2H79c-2 0-2 0-2-2V84c0-1 0-2 2-2h29l1 2v16zM41 100V84l1-2h29c2 0 2 1 2 3v30c0 2-1 2-2 2H42l-1-2v-15zM57 156H42c-1 0-2 0-2-2v-30c0-2 1-2 3-2h27a9 9 0 012 0 1 1 0 011 1v31c0 2-1 2-2 2H57zM93 122h15l1 1v32a1 1 0 01-1 1H78l-1-1v-32a1 1 0 011-1 10 10 0 011 0zM4 4h31l1 1v31c0 2 0 2-2 2H5l-1-2V5 4zM36 116l-32 1V84c0-1 0-2 2-2h28c2 0 2 1 2 2v31a2 2 0 010 1zM36 77H4a2 2 0 010-2V44a1 1 0 011-1h29a3 3 0 012 0zM20 122h15a1 1 0 011 1v32a1 1 0 01-1 1H5a1 1 0 01-1-1v-32a1 1 0 011-1h1zM146 139v16a1 1 0 01-1 1h-30l-1-1v-32l1-1a5 5 0 011 0h28l2 1v1zM41 60V45c0-2 0-2 2-2h28a6 6 0 011 0 1 1 0 011 1v30c0 3 0 3-3 3H42l-1-1V60z" class="d"/></g><g class="c"><path d="M111 59V44c0-2 0-2 2-2h29l1 2v31l-1 2h-29c-2 0-2 0-2-2V59zM180 59v15c0 3 0 3-2 3h-28c-2 0-2-1-2-3V44c0-2 0-2 2-2h28c2 0 2 0 2 2v15zM164 3h14c2 0 2 0 2 2v30c0 2 0 2-2 2h-28a9 9 0 01-1 0 1 1 0 01-1-1V5l1-2h1zM127 37h-14l-2-1V4a1 1 0 011-1h30l1 1v32a1 1 0 010 1 12 12 0 01-2 0zM216 155h-31a2 2 0 010-1v-31l1-2h29c2 0 2 0 2 2v31a9 9 0 01-1 1zM185 43l31-1v33l-1 1h-29l-1-1V44a2 2 0 010-1zM185 82h31a2 2 0 010 2v31a1 1 0 010 1h-29a3 3 0 01-2 0zM200 37h-14a1 1 0 01-1-1V4a1 1 0 011-1h29a1 1 0 011 1v32a1 1 0 010 1h-2zM75 20V4a1 1 0 010-1h29a8 8 0 011 0c1 0 2 0 2 2v31l-2 1a5 5 0 01-1 0H76l-1-1v-1zM180 99v15c0 2 0 2-2 2h-28a5 5 0 01-1 0 1 1 0 01-1-1V85c0-3 0-3 3-3h27l2 1v16z" class="d"/></g><g class="c"><path d="M366 100v15l-1 2h-29c-2 0-2 0-2-2V84c0-1 0-2 2-2h29l1 2v16zM298 100V84l1-2h29c2 0 2 1 2 3v30c0 2-1 2-2 2h-29l-1-2v-15zM314 156h-15c-1 0-2 0-2-2v-30c0-2 1-2 3-2h27a9 9 0 012 0 1 1 0 011 1v31c0 2-1 2-2 2h-14zM350 122h15l1 1v32a1 1 0 01-1 1h-30l-1-1v-32a1 1 0 011-1 10 10 0 011 0zM261 4h31l1 1v31c0 2 0 2-2 2h-29l-1-2V5 4zM293 116l-32 1V84c0-1 0-2 2-2h28c2 0 2 1 2 2v31a2 2 0 010 1zM293 77h-32a2 2 0 010-2V44a1 1 0 011-1h29a3 3 0 012 0zM277 122h15a1 1 0 011 1v32a1 1 0 01-1 1h-30a1 1 0 01-1-1v-32a1 1 0 011-1h1zM403 139v16a1 1 0 01-1 1h-30l-1-1v-32l1-1a5 5 0 011 0h28l2 1v1zM298 60V45c0-2 0-2 2-2h28a6 6 0 011 0 1 1 0 011 1v30c0 3 0 3-3 3h-28l-1-1V60z" class="d"/></g><g class="c"><path d="M368 59V44c0-2 0-2 2-2h29l1 2v31l-1 2h-29c-2 0-2 0-2-2V59zM437 59v15c0 3 0 3-2 3h-28c-2 0-2-1-2-3V44c0-2 0-2 2-2h28c2 0 2 0 2 2v15zM421 3h14c2 0 2 0 2 2v30c0 2 0 2-2 2h-28a9 9 0 01-1 0 1 1 0 01-1-1V5l1-2h1zM384 37h-14l-2-1V4a1 1 0 011-1h30l1 1v32a1 1 0 010 1 12 12 0 01-2 0zM473 155h-31a2 2 0 010-1v-31l1-2h29c1 0 2 0 2 2v31a9 9 0 01-1 1zM442 43l31-1v33l-1 1h-29l-1-1V44a2 2 0 010-1zM442 82h31a2 2 0 010 2v31a1 1 0 010 1h-29a3 3 0 01-2 0zM457 37h-14a1 1 0 01-1-1V4a1 1 0 010-1 1 1 0 011 0h29a1 1 0 011 1v32a1 1 0 010 1h-2zM332 20V4a1 1 0 010-1h29a8 8 0 011 0c1 0 2 0 2 2v31l-2 1a5 5 0 01-1 0h-28l-1-1v-1zM437 99v15c0 2 0 2-2 2h-28a5 5 0 01-1 0 1 1 0 01-1-1V85c0-3 0-3 3-3h27l2 1v16z" class="d"/></g><g class="c"><path d="M623 100v15l-1 2h-29c-2 0-2 0-2-2V84c0-1 0-2 2-2h29l1 2v16zM555 100V84l1-2h29c2 0 2 1 2 3v30c0 2-1 2-2 2h-29l-1-2v-15zM571 156h-15c-1 0-2 0-2-2v-30c0-2 1-2 3-2h27a9 9 0 012 0 1 1 0 011 1v31c0 2-1 2-2 2h-14zM607 122h15l1 1v32a1 1 0 01-1 1h-30l-1-1v-32a1 1 0 011-1 10 10 0 011 0zM518 4h31l1 1v31c0 2 0 2-2 2h-29l-1-2V5 4zM550 116l-32 1V84c0-1 0-2 2-2h28c2 0 2 1 2 2v31a2 2 0 010 1zM550 77h-32a2 2 0 010-2V44a1 1 0 011-1h29a3 3 0 012 0zM534 122h15a1 1 0 011 1v32a1 1 0 01-1 1h-30a1 1 0 01-1-1v-32a1 1 0 011-1h1zM660 139v16a1 1 0 01-1 1h-30l-1-1v-32l1-1a5 5 0 011 0h28l2 1v1zM555 60V45c0-2 0-2 2-2h28a6 6 0 011 0 1 1 0 011 1v30c0 3 0 3-3 3h-28l-1-1V60z" class="d"/></g><g class="c"><path d="M625 59V44c0-2 0-2 2-2h29l1 2v31l-1 2h-29c-2 0-2 0-2-2V59zM694 59v15c0 3 0 3-2 3h-28c-2 0-2-1-2-3V44c0-2 0-2 2-2h28c2 0 2 0 2 2v15zM678 3h14c2 0 2 0 2 2v30c0 2 0 2-2 2h-28a9 9 0 01-1 0 1 1 0 01-1-1V5l1-2h1zM641 37h-14l-2-1V4a1 1 0 011-1h30l1 1v32a1 1 0 010 1 12 12 0 01-2 0zM730 155h-31a2 2 0 010-1v-31l1-2h29c2 0 2 0 2 2v31a9 9 0 01-1 1zM699 43l31-1v33l-1 1h-29l-1-1V44a2 2 0 010-1zM699 82h31a2 2 0 010 2v31a1 1 0 010 1h-29a3 3 0 01-2 0zM714 37h-14a1 1 0 01-1-1V4a1 1 0 010-1 1 1 0 011 0h29a1 1 0 011 1v32a1 1 0 010 1h-2zM589 20V4a1 1 0 010-1h29a8 8 0 011 0c1 0 2 0 2 2v31l-2 1a5 5 0 01-1 0h-28l-1-1v-1zM694 99v15c0 2 0 2-2 2h-28a5 5 0 01-1 0 1 1 0 01-1-1V85c0-3 0-3 3-3h27l2 1v16z" class="d"/></g><g class="c"><path d="M880 100v15l-1 2h-29c-2 0-2 0-2-2V84c0-1 0-2 2-2h29l1 2v16zM812 100V84l1-2h29c2 0 2 1 2 3v30c0 2-1 2-2 2h-29l-1-2v-15zM828 156h-15c-1 0-2 0-2-2v-30c0-2 1-2 3-2h27a9 9 0 012 0 1 1 0 011 1v31c0 2-1 2-2 2h-14zM864 122h15l1 1v32a1 1 0 01-1 1h-30l-1-1v-32a1 1 0 011-1 10 10 0 011 0zM775 4h31l1 1v31c0 2 0 2-2 2h-29l-1-2V5 4zM807 116l-32 1V84c0-1 0-2 2-2h28c2 0 2 1 2 2v31a2 2 0 010 1zM807 77h-32a2 2 0 010-2V44a1 1 0 011-1h29a3 3 0 012 0zM791 122h15a1 1 0 011 1v32a1 1 0 01-1 1h-30a1 1 0 01-1-1v-32a1 1 0 011-1h1zM917 139v16a1 1 0 01-1 1h-30l-1-1v-32l1-1a5 5 0 011 0h28l2 1v1zM812 60V45c0-2 0-2 2-2h28a6 6 0 011 0 1 1 0 011 1v30c0 3 0 3-3 3h-28l-1-1V60z" class="d"/></g><g class="c"><path d="M882 59V44c0-2 0-2 2-2h29l1 2v31l-1 2h-29c-2 0-2 0-2-2V59zM951 59v15c0 3 0 3-2 3h-28c-2 0-2-1-2-3V44c0-2 0-2 2-2h28c2 0 2 0 2 2v15zM935 3h14c2 0 2 0 2 2v30c0 2 0 2-2 2h-28a9 9 0 01-1 0 1 1 0 01-1-1V5l1-2h1zM898 37h-14l-2-1V4a1 1 0 011-1h30l1 1v32a1 1 0 010 1 12 12 0 01-2 0zM987 155h-31a2 2 0 010-1v-31l1-2h29c2 0 2 0 2 2v31a9 9 0 01-1 1zM956 43l31-1v33l-1 1h-29l-1-1V44a2 2 0 010-1zM956 82h31a2 2 0 010 2v31a1 1 0 010 1h-29a3 3 0 01-2 0zM971 37h-14a1 1 0 01-1-1V4a1 1 0 010-1 1 1 0 011 0h29a1 1 0 011 1v32a1 1 0 010 1h-2zM846 20V4a1 1 0 010-1h29a8 8 0 011 0c1 0 2 0 2 2v31l-2 1a5 5 0 01-1 0h-28l-1-1v-1zM951 99v15c0 2 0 2-2 2h-28a5 5 0 01-1 0 1 1 0 01-1-1V85c0-3 0-3 3-3h27l2 1v16z" class="d"/></g><g class="c"><path d="M1137 100v15l-1 2h-29c-2 0-2 0-2-2V84c0-1 0-2 2-2h29l1 2v16zM1069 100V84l1-2h29c2 0 2 1 2 3v30c0 2-1 2-2 2h-29l-1-2v-15zM1085 156h-15c-1 0-2 0-2-2v-30c0-2 1-2 3-2h27a9 9 0 012 0 1 1 0 011 1v31c0 2-1 2-2 2h-14zM1121 122h15l1 1v32a1 1 0 01-1 1h-30l-1-1v-32a1 1 0 011-1 10 10 0 011 0zM1032 4h31l1 1v31c0 2 0 2-2 2h-29l-1-2V5 4zM1064 116l-32 1V84c0-1 0-2 2-2h28c2 0 2 1 2 2v31a2 2 0 010 1zM1064 77h-32a2 2 0 010-2V44a1 1 0 011-1h29a3 3 0 012 0zM1048 122h15a1 1 0 011 1v32a1 1 0 01-1 1h-30a1 1 0 01-1-1v-32a1 1 0 011-1h1zM1174 139v16a1 1 0 01-1 1h-30l-1-1v-32l1-1a5 5 0 011 0h28l2 1v1zM1069 60V45c0-2 0-2 2-2h28a6 6 0 011 0 1 1 0 011 1v30c0 3 0 3-3 3h-28l-1-1V60z" class="d"/></g><g class="c"><path d="M1139 59V44c0-2 0-2 2-2h29l1 2v31l-1 2h-29c-2 0-2 0-2-2V59zM1208 59v15c0 3 0 3-2 3h-28c-2 0-2-1-2-3V44c0-2 0-2 2-2h28c2 0 2 0 2 2v15zM1192 3h14c2 0 2 0 2 2v30c0 2 0 2-2 2h-28a9 9 0 01-1 0 1 1 0 01-1-1V5l1-2h1zM1155 37h-14l-2-1V4a1 1 0 011-1h30l1 1v32a1 1 0 010 1 12 12 0 01-2 0zM1244 155h-31a2 2 0 010-1v-31l1-2h29c2 0 2 0 2 2v31a9 9 0 01-1 1zM1213 43l31-1v33l-1 1h-29l-1-1V44a2 2 0 010-1zM1213 82h31a2 2 0 010 2v31a1 1 0 010 1h-29a3 3 0 01-2 0zM1228 37h-14a1 1 0 01-1-1V4a1 1 0 010-1 1 1 0 011 0h29a1 1 0 011 1v32a1 1 0 010 1h-2zM1103 20V4a1 1 0 010-1h29a8 8 0 011 0c1 0 2 0 2 2v31l-2 1a5 5 0 01-1 0h-28l-1-1v-1zM1208 99v15c0 2 0 2-2 2h-28a5 5 0 01-1 0 1 1 0 01-1-1V85c0-3 0-3 3-3h27l2 1v16z" class="d"/></g></g><g class="b"><g class="c"><path d="M108 284v15l-1 2H78c-2 0-2 0-2-2v-31c0-1 0-2 2-2h29l1 2v16zM40 284v-16l1-2h29c2 0 2 1 2 3v30c0 2-1 2-2 2H41l-1-2v-15zM56 340H41c-1 0-2 0-2-2v-30c0-2 1-2 3-2h27a9 9 0 012 0 1 1 0 011 1v31c0 2-1 2-2 2H56zM92 306h15l1 1v32a1 1 0 01-1 1H77l-1-1v-32a1 1 0 011-1 10 10 0 011 0zM3 188h31l1 1v31c0 2 0 2-2 2H4l-1-2v-31-1zM35 300l-32 1v-33c0-1 0-2 2-2h28c2 0 2 1 2 2v31a2 2 0 010 1zM35 261H3a2 2 0 010-2v-31a1 1 0 011-1h29a3 3 0 012 0zM19 306h15a1 1 0 011 1v32a1 1 0 01-1 1H4a1 1 0 01-1-1v-32a1 1 0 011-1h1zM145 323v16a1 1 0 01-1 1h-30l-1-1v-32l1-1a5 5 0 011 0h28l2 1v1zM40 244v-15c0-2 0-2 2-2h28a6 6 0 011 0 1 1 0 011 1v30c0 3 0 3-3 3H41l-1-1v-16z" class="d"/></g><g class="c"><path d="M110 243v-15c0-2 0-2 2-2h29l1 2v31l-1 2h-29c-2 0-2 0-2-2v-16zM179 243v16c0 2 0 2-2 2h-28c-2 0-2-1-2-3v-30c0-2 0-2 2-2h28c2 0 2 0 2 2v15zM163 187h14c2 0 2 0 2 2v30c0 2 0 2-2 2h-28a9 9 0 01-1 0 1 1 0 01-1-1v-31l1-2h1zM126 221h-14l-2-1v-32a1 1 0 011-1h30l1 1v32a1 1 0 010 1 12 12 0 01-2 0zM215 339h-31a2 2 0 010-1v-31l1-2h29c2 0 2 0 2 2v31a9 9 0 01-1 1zM184 227l31-1v33l-1 1-29 1-1-2v-31a2 2 0 010-1zM184 266h31a2 2 0 010 2v31a1 1 0 010 1h-29a3 3 0 01-2 0zM199 221h-14a1 1 0 01-1-1v-32a1 1 0 011-1h29a1 1 0 011 1v32a1 1 0 010 1h-2zM74 204v-16a1 1 0 010-1h29a8 8 0 011 0l2 1v32l-2 1a5 5 0 01-1 0H75l-1-1v-1zM179 283v15c0 2 0 2-2 2h-28a5 5 0 01-1 0 1 1 0 01-1-1v-30c0-3 0-3 3-3h27l2 1v16z" class="d"/></g><g class="c"><path d="M365 284v15l-1 2h-29c-2 0-2 0-2-2v-31c0-1 0-2 2-2h29l1 2v16zM297 284v-16l1-2h29c2 0 2 1 2 3v30c0 2-1 2-2 2h-29l-1-2v-15zM313 340h-15c-1 0-2 0-2-2v-30c0-2 1-2 3-2h27a9 9 0 012 0 1 1 0 011 1v31c0 2-1 2-2 2h-14zM349 306h15l1 1v32a1 1 0 01-1 1h-30l-1-1v-32a1 1 0 011-1 10 10 0 011 0zM260 188h31l1 1v31c0 2 0 2-2 2h-29l-1-2v-31-1zM292 300l-32 1v-33c0-1 0-2 2-2h28c2 0 2 1 2 2v31a2 2 0 010 1zM292 261h-32a2 2 0 010-2v-31a1 1 0 011-1h29a3 3 0 012 0zM276 306h15a1 1 0 011 1v32a1 1 0 01-1 1h-30a1 1 0 01-1-1v-32a1 1 0 011-1h1zM402 323v16a1 1 0 01-1 1h-30l-1-1v-32l1-1a5 5 0 011 0h28l2 1v1zM297 244v-15c0-2 0-2 2-2h28a6 6 0 011 0 1 1 0 011 1v30c0 3 0 3-3 3h-28l-1-1v-16z" class="d"/></g><g class="c"><path d="M367 243v-15c0-2 0-2 2-2h29l1 2v31l-1 2h-29c-2 0-2 0-2-2v-16zM436 243v16c0 2 0 2-2 2h-28c-2 0-2-1-2-3v-30c0-2 0-2 2-2h28c2 0 2 0 2 2v15zM420 187h14c2 0 2 0 2 2v30c0 2 0 2-2 2h-28a9 9 0 01-1 0 1 1 0 01-1-1v-31l1-2h1zM383 221h-14l-2-1v-32a1 1 0 011-1h30l1 1v32a1 1 0 010 1 12 12 0 01-2 0zM472 339h-31a2 2 0 010-1v-31l1-2h29c1 0 2 0 2 2v31a9 9 0 01-1 1zM441 227l31-1v33l-1 1-29 1-1-2v-31a2 2 0 010-1zM441 266h31a2 2 0 010 2v31a1 1 0 010 1h-29a3 3 0 01-2 0zM456 221h-14a1 1 0 01-1-1v-32a1 1 0 010-1 1 1 0 011 0h29a1 1 0 011 1v32a1 1 0 010 1h-2zM331 204v-16a1 1 0 010-1h29a8 8 0 011 0l2 1v32l-2 1a5 5 0 01-1 0h-28l-1-1v-1zM436 283v15c0 2 0 2-2 2h-28a5 5 0 01-1 0 1 1 0 01-1-1v-30c0-3 0-3 3-3h27l2 1v16z" class="d"/></g><g class="c"><path d="M622 284v15l-1 2h-29c-2 0-2 0-2-2v-31c0-1 0-2 2-2h29l1 2v16zM554 284v-16l1-2h29c2 0 2 1 2 3v30c0 2-1 2-2 2h-29l-1-2v-15zM570 340h-15c-1 0-2 0-2-2v-30c0-2 1-2 3-2h27a9 9 0 012 0 1 1 0 011 1v31c0 2-1 2-2 2h-14zM606 306h15l1 1v32a1 1 0 01-1 1h-30l-1-1v-32a1 1 0 011-1 10 10 0 011 0zM517 188h31l1 1v31c0 2 0 2-2 2h-29l-1-2v-31-1zM549 300l-32 1v-33c0-1 0-2 2-2h28c2 0 2 1 2 2v31a2 2 0 010 1zM549 261h-32a2 2 0 010-2v-31a1 1 0 011-1h29a3 3 0 012 0zM533 306h15a1 1 0 011 1v32a1 1 0 01-1 1h-30a1 1 0 01-1-1v-32a1 1 0 011-1h1zM659 323v16a1 1 0 01-1 1h-30l-1-1v-32l1-1a5 5 0 011 0h28l2 1v1zM554 244v-15c0-2 0-2 2-2h28a6 6 0 011 0 1 1 0 011 1v30c0 3 0 3-3 3h-28l-1-1v-16z" class="d"/></g><g class="c"><path d="M624 243v-15c0-2 0-2 2-2h29l1 2v31l-1 2h-29c-2 0-2 0-2-2v-16zM693 243v16c0 2 0 2-2 2h-28c-2 0-2-1-2-3v-30c0-2 0-2 2-2h28c2 0 2 0 2 2v15zM677 187h14c2 0 2 0 2 2v30c0 2 0 2-2 2h-28a9 9 0 01-1 0 1 1 0 01-1-1v-31l1-2h1zM640 221h-14l-2-1v-32a1 1 0 011-1h30l1 1v32a1 1 0 010 1 12 12 0 01-2 0zM729 339h-31a2 2 0 010-1v-31l1-2h29c2 0 2 0 2 2v31a9 9 0 01-1 1zM698 227l31-1v33l-1 1-29 1-1-2v-31a2 2 0 010-1zM698 266h31a2 2 0 010 2v31a1 1 0 010 1h-29a3 3 0 01-2 0zM713 221h-14a1 1 0 01-1-1v-32a1 1 0 010-1 1 1 0 011 0h29a1 1 0 011 1v32a1 1 0 010 1h-2zM588 204v-16a1 1 0 010-1h29a8 8 0 011 0l2 1v32l-2 1a5 5 0 01-1 0h-28l-1-1v-1zM693 283v15c0 2 0 2-2 2h-28a5 5 0 01-1 0 1 1 0 01-1-1v-30c0-3 0-3 3-3h27l2 1v16z" class="d"/></g><g class="c"><path d="M879 284v15l-1 2h-29c-2 0-2 0-2-2v-31c0-1 0-2 2-2h29l1 2v16zM811 284v-16l1-2h29c2 0 2 1 2 3v30c0 2-1 2-2 2h-29l-1-2v-15zM827 340h-15c-1 0-2 0-2-2v-30c0-2 1-2 3-2h27a9 9 0 012 0 1 1 0 011 1v31c0 2-1 2-2 2h-14zM863 306h15l1 1v32a1 1 0 01-1 1h-30l-1-1v-32a1 1 0 011-1 10 10 0 011 0zM774 188h31l1 1v31c0 2 0 2-2 2h-29l-1-2v-31-1zM806 300l-32 1v-33c0-1 0-2 2-2h28c2 0 2 1 2 2v31a2 2 0 010 1zM806 261h-32a2 2 0 010-2v-31a1 1 0 011-1h29a3 3 0 012 0zM790 306h15a1 1 0 011 1v32a1 1 0 01-1 1h-30a1 1 0 01-1-1v-32a1 1 0 011-1h1zM916 323v16a1 1 0 01-1 1h-30l-1-1v-32l1-1a5 5 0 011 0h28l2 1v1zM811 244v-15c0-2 0-2 2-2h28a6 6 0 011 0 1 1 0 011 1v30c0 3 0 3-3 3h-28l-1-1v-16z" class="d"/></g><g class="c"><path d="M881 243v-15c0-2 0-2 2-2h29l1 2v31l-1 2h-29c-2 0-2 0-2-2v-16zM950 243v16c0 2 0 2-2 2h-28c-2 0-2-1-2-3v-30c0-2 0-2 2-2h28c2 0 2 0 2 2v15zM934 187h14c2 0 2 0 2 2v30c0 2 0 2-2 2h-28a9 9 0 01-1 0 1 1 0 01-1-1v-31l1-2h1zM897 221h-14l-2-1v-32a1 1 0 011-1h30l1 1v32a1 1 0 010 1 12 12 0 01-2 0zM986 339h-31a2 2 0 010-1v-31l1-2h29c2 0 2 0 2 2v31a9 9 0 01-1 1zM955 227l31-1v33l-1 1-29 1-1-2v-31a2 2 0 010-1zM955 266h31a2 2 0 010 2v31a1 1 0 010 1h-29a3 3 0 01-2 0zM970 221h-14a1 1 0 01-1-1v-32a1 1 0 010-1 1 1 0 011 0h29a1 1 0 011 1v32a1 1 0 010 1h-2zM845 204v-16a1 1 0 010-1h29a8 8 0 011 0l2 1v32l-2 1a5 5 0 01-1 0h-28l-1-1v-1zM950 283v15c0 2 0 2-2 2h-28a5 5 0 01-1 0 1 1 0 01-1-1v-30c0-3 0-3 3-3h27l2 1v16z" class="d"/></g><g class="c"><path d="M1136 284v15l-1 2h-29c-2 0-2 0-2-2v-31c0-1 0-2 2-2h29l1 2v16zM1068 284v-16l1-2h29c2 0 2 1 2 3v30c0 2-1 2-2 2h-29l-1-2v-15zM1084 340h-15c-1 0-2 0-2-2v-30c0-2 1-2 3-2h27a9 9 0 012 0 1 1 0 011 1v31c0 2-1 2-2 2h-14zM1120 306h15l1 1v32a1 1 0 01-1 1h-30l-1-1v-32a1 1 0 011-1 10 10 0 011 0zM1031 188h31l1 1v31c0 2 0 2-2 2h-29l-1-2v-31-1zM1063 300l-32 1v-33c0-1 0-2 2-2h28c2 0 2 1 2 2v31a2 2 0 010 1zM1063 261h-32a2 2 0 010-2v-31a1 1 0 011-1h29a3 3 0 012 0zM1047 306h15a1 1 0 011 1v32a1 1 0 01-1 1h-30a1 1 0 01-1-1v-32a1 1 0 011-1h1zM1173 323v16a1 1 0 01-1 1h-30l-1-1v-32l1-1a5 5 0 011 0h28l2 1v1zM1068 244v-15c0-2 0-2 2-2h28a6 6 0 011 0 1 1 0 011 1v30c0 3 0 3-3 3h-28l-1-1v-16z" class="d"/></g><g class="c"><path d="M1138 243v-15c0-2 0-2 2-2h29l1 2v31l-1 2h-29c-2 0-2 0-2-2v-16zM1207 243v16c0 2 0 2-2 2h-28c-2 0-2-1-2-3v-30c0-2 0-2 2-2h28c2 0 2 0 2 2v15zM1191 187h14c2 0 2 0 2 2v30c0 2 0 2-2 2h-28a9 9 0 01-1 0 1 1 0 01-1-1v-31l1-2h1zM1154 221h-14l-2-1v-32a1 1 0 011-1h30l1 1v32a1 1 0 010 1 12 12 0 01-2 0zM1243 339h-31a2 2 0 010-1v-31l1-2h29c2 0 2 0 2 2v31a9 9 0 01-1 1zM1212 227l31-1v33l-1 1-29 1-1-2v-31a2 2 0 010-1zM1212 266h31a2 2 0 010 2v31a1 1 0 010 1h-29a3 3 0 01-2 0zM1227 221h-14a1 1 0 01-1-1v-32a1 1 0 010-1 1 1 0 011 0h29a1 1 0 011 1v32a1 1 0 010 1h-2zM1102 204v-16a1 1 0 010-1h29a8 8 0 011 0l2 1v32l-2 1a5 5 0 01-1 0h-28l-1-1v-1zM1207 283v15c0 2 0 2-2 2h-28a5 5 0 01-1 0 1 1 0 01-1-1v-30c0-3 0-3 3-3h27l2 1v16z" class="d"/></g></g><g class="b"><g class="c"><path d="M107 468v15l-1 2H77c-2 0-2 0-2-2v-31c0-1 0-2 2-2h29l1 2v16zM39 468v-16l1-2h29c2 0 2 1 2 3v30c0 2-1 2-2 2H40l-1-2v-15zM55 524H40c-1 0-2 0-2-2v-30c0-2 1-2 3-2h27a9 9 0 012 0 1 1 0 011 1v31c0 2-1 2-2 2H55zM91 490h15l1 1v32a1 1 0 01-1 1H76l-1-1v-32a1 1 0 011-1 10 10 0 011 0zM2 372h31l1 1v31c0 2 0 2-2 2H3l-1-2v-31-1zM34 484l-32 1v-33c0-1 0-2 2-2h28c2 0 2 1 2 2v31a2 2 0 010 1zM34 445H2a2 2 0 010-2v-31a1 1 0 011-1h29a3 3 0 012 0zM18 490h15a1 1 0 011 1v32a1 1 0 01-1 1H3a1 1 0 01-1-1v-32a1 1 0 011-1h1zM144 507v16a1 1 0 01-1 1h-30l-1-1v-32l1-1a5 5 0 011 0h28l2 1v1zM39 428v-15c0-2 0-2 2-2h28a6 6 0 011 0 1 1 0 011 1v30c0 3 0 3-3 3H40l-1-1v-16z" class="d"/></g><g class="c"><path d="M109 427v-15c0-2 0-2 2-2h29l1 2v31l-1 2h-29c-2 0-2 0-2-2v-16zM178 427v16c0 2 0 2-2 2h-28c-2 0-2-1-2-3v-30c0-2 0-2 2-2h28c2 0 2 0 2 2v15zM162 371h14c2 0 2 0 2 2v30c0 2 0 2-2 2h-28a9 9 0 01-1 0 1 1 0 01-1-1v-31l1-2h1zM125 405h-14l-2-1v-32a1 1 0 011-1h30l1 1v32a1 1 0 010 1 12 12 0 01-2 0zM214 523h-31a2 2 0 010-1v-31l1-2h29l2 1v32a9 9 0 01-1 1zM183 411l31-1v33l-1 1-29 1-1-2v-31a2 2 0 010-1zM183 450h31a2 2 0 010 2v31a1 1 0 010 1h-29a3 3 0 01-2 0zM198 405h-14a1 1 0 01-1-1v-32a1 1 0 011-1h29a1 1 0 011 1v32a1 1 0 010 1h-2zM73 388v-16a1 1 0 010-1h29a8 8 0 011 0l2 1v32l-2 1a5 5 0 01-1 0H74l-1-1v-1zM178 467v15c0 2 0 2-2 2h-28a5 5 0 01-1 0 1 1 0 01-1-1v-30c0-3 0-3 3-3h27l2 1v16z" class="d"/></g><g class="c"><path d="M364 468v15l-1 2h-29c-2 0-2 0-2-2v-31c0-1 0-2 2-2h29l1 2v16zM296 468v-16l1-2h29c2 0 2 1 2 3v30c0 2-1 2-2 2h-29l-1-2v-15zM312 524h-15c-1 0-2 0-2-2v-30c0-2 1-2 3-2h27a9 9 0 012 0 1 1 0 011 1v31c0 2-1 2-2 2h-14zM348 490h15l1 1v32a1 1 0 01-1 1h-30l-1-1v-32a1 1 0 011-1 10 10 0 011 0zM259 372h31l1 1v31c0 2 0 2-2 2h-29l-1-2v-31-1zM291 484l-32 1v-33c0-1 0-2 2-2h28c2 0 2 1 2 2v31a2 2 0 010 1zM291 445h-32a2 2 0 010-2v-31a1 1 0 011-1h29a3 3 0 012 0zM275 490h15a1 1 0 011 1v32a1 1 0 01-1 1h-30a1 1 0 01-1-1v-32a1 1 0 011-1h1zM401 507v16a1 1 0 01-1 1h-30l-1-1v-32l1-1a5 5 0 011 0h28l2 1v1zM296 428v-15c0-2 0-2 2-2h28a6 6 0 011 0 1 1 0 011 1v30c0 3 0 3-3 3h-28l-1-1v-16z" class="d"/></g><g class="c"><path d="M366 427v-15c0-2 0-2 2-2h29l1 2v31l-1 2h-29c-2 0-2 0-2-2v-16zM435 427v16c0 2 0 2-2 2h-28c-2 0-2-1-2-3v-30c0-2 0-2 2-2h28c2 0 2 0 2 2v15zM419 371h14c2 0 2 0 2 2v30c0 2 0 2-2 2h-28a9 9 0 01-1 0 1 1 0 01-1-1v-31l1-2h1zM382 405h-14l-2-1v-32a1 1 0 011-1h30l1 1v32a1 1 0 010 1 12 12 0 01-2 0zM471 523h-31a2 2 0 010-1v-31l1-2h29c1 0 2 0 2 2v31a9 9 0 01-1 1zM440 411l31-1v33l-1 1-29 1-1-2v-31a2 2 0 010-1zM440 450h31a2 2 0 010 2v31a1 1 0 010 1h-29a3 3 0 01-2 0zM455 405h-14a1 1 0 01-1-1v-32a1 1 0 010-1h30a1 1 0 011 1v32a1 1 0 010 1h-2zM330 388v-16a1 1 0 010-1h29a8 8 0 011 0l2 1v32l-2 1a5 5 0 01-1 0h-28l-1-1v-1zM435 467v15c0 2 0 2-2 2h-28a5 5 0 01-1 0 1 1 0 01-1-1v-30c0-3 0-3 3-3h27l2 1v16z" class="d"/></g><g class="c"><path d="M621 468v15l-1 2h-29c-2 0-2 0-2-2v-31c0-1 0-2 2-2h29l1 2v16zM553 468v-16l1-2h29c2 0 2 1 2 3v30c0 2-1 2-2 2h-29l-1-2v-15zM569 524h-15c-1 0-2 0-2-2v-30c0-2 1-2 3-2h27a9 9 0 012 0 1 1 0 011 1v31c0 2-1 2-2 2h-14zM605 490h15l1 1v32a1 1 0 01-1 1h-30l-1-1v-32a1 1 0 011-1 10 10 0 011 0zM516 372h31l1 1v31c0 2 0 2-2 2h-29l-1-2v-31-1zM548 484l-32 1v-33c0-1 0-2 2-2h28c2 0 2 1 2 2v31a2 2 0 010 1zM548 445h-32a2 2 0 010-2v-31a1 1 0 011-1h29a3 3 0 012 0zM532 490h15a1 1 0 011 1v32a1 1 0 01-1 1h-30a1 1 0 01-1-1v-32a1 1 0 011-1h1zM658 507v16a1 1 0 01-1 1h-30l-1-1v-32l1-1a5 5 0 011 0h28l2 1v1zM553 428v-15c0-2 0-2 2-2h28a6 6 0 011 0 1 1 0 011 1v30c0 3 0 3-3 3h-28l-1-1v-16z" class="d"/></g><g class="c"><path d="M623 427v-15c0-2 0-2 2-2h29l1 2v31l-1 2h-29c-2 0-2 0-2-2v-16zM692 427v16c0 2 0 2-2 2h-28c-2 0-2-1-2-3v-30c0-2 0-2 2-2h28c2 0 2 0 2 2v15zM676 371h14c2 0 2 0 2 2v30c0 2 0 2-2 2h-28a9 9 0 01-1 0 1 1 0 01-1-1v-31l1-2h1zM639 405h-14l-2-1v-32a1 1 0 011-1h30l1 1v32a1 1 0 010 1 12 12 0 01-2 0zM728 523h-31a2 2 0 010-1v-31l1-2h29l2 1v32a9 9 0 01-1 1zM697 411l31-1v33l-1 1-29 1-1-2v-31a2 2 0 010-1zM697 450h31a2 2 0 010 2v31a1 1 0 010 1h-29a3 3 0 01-2 0zM712 405h-14a1 1 0 01-1-1v-32a1 1 0 010-1h30a1 1 0 011 1v32a1 1 0 010 1h-2zM587 388v-16a1 1 0 010-1h29a8 8 0 011 0l2 1v32l-2 1a5 5 0 01-1 0h-28l-1-1v-1zM692 467v15c0 2 0 2-2 2h-28a5 5 0 01-1 0 1 1 0 01-1-1v-30c0-3 0-3 3-3h27l2 1v16z" class="d"/></g><g class="c"><path d="M878 468v15l-1 2h-29c-2 0-2 0-2-2v-31c0-1 0-2 2-2h29l1 2v16zM810 468v-16l1-2h29c2 0 2 1 2 3v30c0 2-1 2-2 2h-29l-1-2v-15zM826 524h-15c-1 0-2 0-2-2v-30c0-2 1-2 3-2h27a9 9 0 012 0 1 1 0 011 1v31c0 2-1 2-2 2h-14zM862 490h15l1 1v32a1 1 0 01-1 1h-30l-1-1v-32a1 1 0 011-1 10 10 0 011 0zM773 372h31l1 1v31c0 2 0 2-2 2h-29l-1-2v-31-1zM805 484l-32 1v-33c0-1 0-2 2-2h28c2 0 2 1 2 2v31a2 2 0 010 1zM805 445h-32a2 2 0 010-2v-31a1 1 0 011-1h29a3 3 0 012 0zM789 490h15a1 1 0 011 1v32a1 1 0 01-1 1h-30a1 1 0 01-1-1v-32a1 1 0 011-1h1zM915 507v16a1 1 0 01-1 1h-30l-1-1v-32l1-1a5 5 0 011 0h28l2 1v1zM810 428v-15c0-2 0-2 2-2h28a6 6 0 011 0 1 1 0 011 1v30c0 3 0 3-3 3h-28l-1-1v-16z" class="d"/></g><g class="c"><path d="M880 427v-15c0-2 0-2 2-2h29l1 2v31l-1 2h-29c-2 0-2 0-2-2v-16zM949 427v16c0 2 0 2-2 2h-28c-2 0-2-1-2-3v-30c0-2 0-2 2-2h28c2 0 2 0 2 2v15zM933 371h14c2 0 2 0 2 2v30c0 2 0 2-2 2h-28a9 9 0 01-1 0 1 1 0 01-1-1v-31l1-2h1zM896 405h-14l-2-1v-32a1 1 0 011-1h30l1 1v32a1 1 0 010 1 12 12 0 01-2 0zM985 523h-31a2 2 0 010-1v-31l1-2h29l2 1v32a9 9 0 01-1 1zM954 411l31-1v33l-1 1-29 1-1-2v-31a2 2 0 010-1zM954 450h31a2 2 0 010 2v31a1 1 0 010 1h-29a3 3 0 01-2 0zM969 405h-14a1 1 0 01-1-1v-32a1 1 0 010-1h30a1 1 0 011 1v32a1 1 0 010 1h-2zM844 388v-16a1 1 0 010-1h29a8 8 0 011 0l2 1v32l-2 1a5 5 0 01-1 0h-28l-1-1v-1zM949 467v15c0 2 0 2-2 2h-28a5 5 0 01-1 0 1 1 0 01-1-1v-30c0-3 0-3 3-3h27l2 1v16z" class="d"/></g><g class="c"><path d="M1135 468v15l-1 2h-29c-2 0-2 0-2-2v-31c0-1 0-2 2-2h29l1 2v16zM1067 468v-16l1-2h29c2 0 2 1 2 3v30c0 2-1 2-2 2h-29l-1-2v-15zM1083 524h-15c-1 0-2 0-2-2v-30c0-2 1-2 3-2h27a9 9 0 012 0 1 1 0 011 1v31c0 2-1 2-2 2h-14zM1119 490h15l1 1v32a1 1 0 01-1 1h-30l-1-1v-32a1 1 0 011-1 10 10 0 011 0zM1030 372h31l1 1v31c0 2 0 2-2 2h-29l-1-2v-31-1zM1062 484l-32 1v-33c0-1 0-2 2-2h28c2 0 2 1 2 2v31a2 2 0 010 1zM1062 445h-32a2 2 0 010-2v-31a1 1 0 011-1h29a3 3 0 012 0zM1046 490h15a1 1 0 011 1v32a1 1 0 01-1 1h-30a1 1 0 01-1-1v-32a1 1 0 011-1h1zM1172 507v16a1 1 0 01-1 1h-30l-1-1v-32l1-1a5 5 0 011 0h28l2 1v1zM1067 428v-15c0-2 0-2 2-2h28a6 6 0 011 0 1 1 0 011 1v30c0 3 0 3-3 3h-28l-1-1v-16z" class="d"/></g><g class="c"><path d="M1137 427v-15c0-2 0-2 2-2h29l1 2v31l-1 2h-29c-2 0-2 0-2-2v-16zM1206 427v16c0 2 0 2-2 2h-28c-2 0-2-1-2-3v-30c0-2 0-2 2-2h28c2 0 2 0 2 2v15zM1190 371h14c2 0 2 0 2 2v30c0 2 0 2-2 2h-28a9 9 0 01-1 0 1 1 0 01-1-1v-31l1-2h1zM1153 405h-14l-2-1v-32a1 1 0 011-1h30l1 1v32a1 1 0 010 1 12 12 0 01-2 0zM1242 523h-31a2 2 0 010-1v-31l1-2h29l2 1v32a9 9 0 01-1 1zM1211 411l31-1v33l-1 1-29 1-1-2v-31a2 2 0 010-1zM1211 450h31a2 2 0 010 2v31a1 1 0 010 1h-29a3 3 0 01-2 0zM1226 405h-14a1 1 0 01-1-1v-32a1 1 0 010-1h30a1 1 0 011 1v32a1 1 0 010 1h-2zM1101 388v-16a1 1 0 010-1h29a8 8 0 011 0l2 1v32l-2 1a5 5 0 01-1 0h-28l-1-1v-1zM1206 467v15c0 2 0 2-2 2h-28a5 5 0 01-1 0 1 1 0 01-1-1v-30c0-3 0-3 3-3h27l2 1v16z" class="d"/></g></g><g class="b"><g class="c"><path d="M106 652v15l-1 2H76c-2 0-2 0-2-2v-31c0-1 0-2 2-2h29l1 2v16zM38 652v-16l1-2h29c2 0 2 1 2 3v30c0 2-1 2-2 2H39l-1-2v-15zM54 708H39c-1 0-2 0-2-2v-30c0-2 1-2 3-2h27a9 9 0 012 0 1 1 0 011 1v31c0 2-1 2-2 2H54zM90 674h15l1 1v32a1 1 0 01-1 1H75l-1-1v-32a1 1 0 011-1 10 10 0 011 0zM1 556h31l1 1v31c0 2 0 2-2 2H2l-1-2v-31-1zM33 668l-32 1v-33c0-1 0-2 2-2h28c2 0 2 1 2 2v31a2 2 0 010 1zM33 629H1a2 2 0 010-2v-31a1 1 0 011-1h29a3 3 0 012 0zM17 674h15a1 1 0 011 1v32a1 1 0 01-1 1H2a1 1 0 01-1-1v-32a1 1 0 011-1h1zM143 691v16a1 1 0 01-1 1h-30l-1-1v-32l1-1a5 5 0 011 0h28l2 1v1zM38 612v-15c0-2 0-2 2-2h28a6 6 0 011 0 1 1 0 011 1v30c0 3 0 3-3 3H39l-1-1v-16z" class="d"/></g><g class="c"><path d="M108 611v-15c0-2 0-2 2-2h29l1 2v31l-1 2h-29c-2 0-2 0-2-2v-16zM177 611v16c0 2 0 2-2 2h-28c-2 0-2-1-2-3v-30c0-2 0-2 2-2h28c2 0 2 0 2 2v15zM161 555h14c2 0 2 0 2 2v30c0 2 0 2-2 2h-28a9 9 0 01-1 0 1 1 0 01-1-1v-31l1-2h1zM124 589h-14l-2-1v-32a1 1 0 011-1h30l1 1v32a1 1 0 010 1 12 12 0 01-2 0zM213 707h-31a2 2 0 010-1v-31l1-2h29l2 1v32a9 9 0 01-1 1zM182 595l31-1v33l-1 1-29 1-1-2v-31a2 2 0 010-1zM182 634h31a2 2 0 010 2v31a1 1 0 010 1h-29a3 3 0 01-2 0zM197 589h-14a1 1 0 01-1-1v-32a1 1 0 011-1h29a1 1 0 011 1v32a1 1 0 010 1h-2zM72 572v-16a1 1 0 010-1h29a8 8 0 011 0c1 0 2 0 2 2v31l-2 1a5 5 0 01-1 0H73l-1-1v-1zM177 651v15c0 2 0 2-2 2h-28a5 5 0 01-1 0 1 1 0 01-1-1v-30c0-3 0-3 3-3h27l2 1v16z" class="d"/></g><g class="c"><path d="M363 652v15l-1 2h-29c-2 0-2 0-2-2v-31c0-1 0-2 2-2h29l1 2v16zM295 652v-16l1-2h29c2 0 2 1 2 3v30c0 2-1 2-2 2h-29l-1-2v-15zM311 708h-15c-1 0-2 0-2-2v-30c0-2 1-2 3-2h27a9 9 0 012 0 1 1 0 011 1v31c0 2-1 2-2 2h-14zM347 674h15l1 1v32a1 1 0 01-1 1h-30l-1-1v-32a1 1 0 011-1 10 10 0 011 0zM258 556h31l1 1v31c0 2 0 2-2 2h-29l-1-2v-31-1zM290 668l-32 1v-33c0-1 0-2 2-2h28c2 0 2 1 2 2v31a2 2 0 010 1zM290 629h-32a2 2 0 010-2v-31a1 1 0 011-1h29a3 3 0 012 0zM274 674h15a1 1 0 011 1v32a1 1 0 01-1 1h-30a1 1 0 01-1-1v-32a1 1 0 011-1h1zM400 691v16a1 1 0 01-1 1h-30l-1-1v-32l1-1a5 5 0 011 0h28l2 1v1zM295 612v-15c0-2 0-2 2-2h28a6 6 0 011 0 1 1 0 011 1v30c0 3 0 3-3 3h-28l-1-1v-16z" class="d"/></g><g class="c"><path d="M365 611v-15c0-2 0-2 2-2h29l1 2v31l-1 2h-29c-2 0-2 0-2-2v-16zM434 611v16c0 2 0 2-2 2h-28c-2 0-2-1-2-3v-30c0-2 0-2 2-2h28c2 0 2 0 2 2v15zM418 555h14c2 0 2 0 2 2v30c0 2 0 2-2 2h-28a9 9 0 01-1 0 1 1 0 01-1-1v-31l1-2h1zM381 589h-14l-2-1v-32a1 1 0 011-1h30l1 1v32a1 1 0 010 1 12 12 0 01-2 0zM470 707h-31a2 2 0 010-1v-31l1-2h29c1 0 2 0 2 2v31a9 9 0 01-1 1zM439 595l31-1v33l-1 1-29 1-1-2v-31a2 2 0 010-1zM439 634h31a2 2 0 010 2v31a1 1 0 010 1h-29a3 3 0 01-2 0zM454 589h-14a1 1 0 01-1-1v-32a1 1 0 010-1h30a1 1 0 011 1v32a1 1 0 010 1h-2zM329 572v-16a1 1 0 010-1h29a8 8 0 011 0c1 0 2 0 2 2v31l-2 1a5 5 0 01-1 0h-28l-1-1v-1zM434 651v15c0 2 0 2-2 2h-28a5 5 0 01-1 0 1 1 0 01-1-1v-30c0-3 0-3 3-3h27l2 1v16z" class="d"/></g><g class="c"><path d="M620 652v15l-1 2h-29c-2 0-2 0-2-2v-31c0-1 0-2 2-2h29l1 2v16zM552 652v-16l1-2h29c2 0 2 1 2 3v30c0 2-1 2-2 2h-29l-1-2v-15zM568 708h-15c-1 0-2 0-2-2v-30c0-2 1-2 3-2h27a9 9 0 012 0 1 1 0 011 1v31c0 2-1 2-2 2h-14zM604 674h15l1 1v32a1 1 0 01-1 1h-30l-1-1v-32a1 1 0 011-1 10 10 0 011 0zM515 556h31l1 1v31c0 2 0 2-2 2h-29l-1-2v-31-1zM547 668l-32 1v-33c0-1 0-2 2-2h28c2 0 2 1 2 2v31a2 2 0 010 1zM547 629h-32a2 2 0 010-2v-31a1 1 0 011-1h29a3 3 0 012 0zM531 674h15a1 1 0 011 1v32a1 1 0 01-1 1h-30a1 1 0 01-1-1v-32a1 1 0 011-1h1zM657 691v16a1 1 0 01-1 1h-30l-1-1v-32l1-1a5 5 0 011 0h28l2 1v1zM552 612v-15c0-2 0-2 2-2h28a6 6 0 011 0 1 1 0 011 1v30c0 3 0 3-3 3h-28l-1-1v-16z" class="d"/></g><g class="c"><path d="M622 611v-15c0-2 0-2 2-2h29l1 2v31l-1 2h-29c-2 0-2 0-2-2v-16zM691 611v16c0 2 0 2-2 2h-28c-2 0-2-1-2-3v-30c0-2 0-2 2-2h28c2 0 2 0 2 2v15zM675 555h14c2 0 2 0 2 2v30c0 2 0 2-2 2h-28a9 9 0 01-1 0 1 1 0 01-1-1v-31l1-2h1zM638 589h-14l-2-1v-32a1 1 0 011-1h30l1 1v32a1 1 0 010 1 12 12 0 01-2 0zM727 707h-31a2 2 0 010-1v-31l1-2h29l2 1v32a9 9 0 01-1 1zM696 595l31-1v33l-1 1-29 1-1-2v-31a2 2 0 010-1zM696 634h31a2 2 0 010 2v31a1 1 0 010 1h-29a3 3 0 01-2 0zM711 589h-14a1 1 0 01-1-1v-32a1 1 0 010-1h30a1 1 0 011 1v32a1 1 0 010 1h-2zM586 572v-16a1 1 0 010-1h29a8 8 0 011 0c1 0 2 0 2 2v31l-2 1a5 5 0 01-1 0h-28l-1-1v-1zM691 651v15c0 2 0 2-2 2h-28a5 5 0 01-1 0 1 1 0 01-1-1v-30c0-3 0-3 3-3h27l2 1v16z" class="d"/></g><g class="c"><path d="M877 652v15l-1 2h-29c-2 0-2 0-2-2v-31c0-1 0-2 2-2h29l1 2v16zM809 652v-16l1-2h29c2 0 2 1 2 3v30c0 2-1 2-2 2h-29l-1-2v-15zM825 708h-15c-1 0-2 0-2-2v-30c0-2 1-2 3-2h27a9 9 0 012 0 1 1 0 011 1v31c0 2-1 2-2 2h-14zM861 674h15l1 1v32a1 1 0 01-1 1h-30l-1-1v-32a1 1 0 011-1 10 10 0 011 0zM772 556h31l1 1v31c0 2 0 2-2 2h-29l-1-2v-31-1zM804 668l-32 1v-33c0-1 0-2 2-2h28c2 0 2 1 2 2v31a2 2 0 010 1zM804 629h-32a2 2 0 010-2v-31a1 1 0 011-1h29a3 3 0 012 0zM788 674h15a1 1 0 011 1v32a1 1 0 01-1 1h-30a1 1 0 01-1-1v-32a1 1 0 011-1h1zM914 691v16a1 1 0 01-1 1h-30l-1-1v-32l1-1a5 5 0 011 0h28l2 1v1zM809 612v-15c0-2 0-2 2-2h28a6 6 0 011 0 1 1 0 011 1v30c0 3 0 3-3 3h-28l-1-1v-16z" class="d"/></g><g class="c"><path d="M879 611v-15c0-2 0-2 2-2h29l1 2v31l-1 2h-29c-2 0-2 0-2-2v-16zM948 611v16c0 2 0 2-2 2h-28c-2 0-2-1-2-3v-30c0-2 0-2 2-2h28c2 0 2 0 2 2v15zM932 555h14c2 0 2 0 2 2v30c0 2 0 2-2 2h-28a9 9 0 01-1 0 1 1 0 01-1-1v-31l1-2h1zM895 589h-14l-2-1v-32a1 1 0 011-1h30l1 1v32a1 1 0 010 1 12 12 0 01-2 0zM984 707h-31a2 2 0 010-1v-31l1-2h29l2 1v32a9 9 0 01-1 1zM953 595l31-1v33l-1 1-29 1-1-2v-31a2 2 0 010-1zM953 634h31a2 2 0 010 2v31a1 1 0 010 1h-29a3 3 0 01-2 0zM968 589h-14a1 1 0 01-1-1v-32a1 1 0 010-1h30a1 1 0 011 1v32a1 1 0 010 1h-2zM843 572v-16a1 1 0 010-1h29a8 8 0 011 0c1 0 2 0 2 2v31l-2 1a5 5 0 01-1 0h-28l-1-1v-1zM948 651v15c0 2 0 2-2 2h-28a5 5 0 01-1 0 1 1 0 01-1-1v-30c0-3 0-3 3-3h27l2 1v16z" class="d"/></g><g class="c"><path d="M1134 652v15l-1 2h-29c-2 0-2 0-2-2v-31c0-1 0-2 2-2h29l1 2v16zM1066 652v-16l1-2h29c2 0 2 1 2 3v30c0 2-1 2-2 2h-29l-1-2v-15zM1082 708h-15c-1 0-2 0-2-2v-30c0-2 1-2 3-2h27a9 9 0 012 0 1 1 0 011 1v31c0 2-1 2-2 2h-14zM1118 674h15l1 1v32a1 1 0 01-1 1h-30l-1-1v-32a1 1 0 011-1 10 10 0 011 0zM1029 556h31l1 1v31c0 2 0 2-2 2h-29l-1-2v-31-1zM1061 668l-32 1v-33c0-1 0-2 2-2h28c2 0 2 1 2 2v31a2 2 0 010 1zM1061 629h-32a2 2 0 010-2v-31a1 1 0 011-1h29a3 3 0 012 0zM1045 674h15a1 1 0 011 1v32a1 1 0 01-1 1h-30a1 1 0 01-1-1v-32a1 1 0 011-1h1zM1171 691v16a1 1 0 01-1 1h-30l-1-1v-32l1-1a5 5 0 011 0h28l2 1v1zM1066 612v-15c0-2 0-2 2-2h28a6 6 0 011 0 1 1 0 011 1v30c0 3 0 3-3 3h-28l-1-1v-16z" class="d"/></g><g class="c"><path d="M1136 611v-15c0-2 0-2 2-2h29l1 2v31l-1 2h-29c-2 0-2 0-2-2v-16zM1205 611v16c0 2 0 2-2 2h-28c-2 0-2-1-2-3v-30c0-2 0-2 2-2h28c2 0 2 0 2 2v15zM1189 555h14c2 0 2 0 2 2v30c0 2 0 2-2 2h-28a9 9 0 01-1 0 1 1 0 01-1-1v-31l1-2h1zM1152 589h-14l-2-1v-32a1 1 0 011-1h30l1 1v32a1 1 0 010 1 12 12 0 01-2 0zM1241 707h-31a2 2 0 010-1v-31l1-2h29l2 1v32a9 9 0 01-1 1zM1210 595l31-1v33l-1 1-29 1-1-2v-31a2 2 0 010-1zM1210 634h31a2 2 0 010 2v31a1 1 0 010 1h-29a3 3 0 01-2 0zM1225 589h-14a1 1 0 01-1-1v-32a1 1 0 010-1h30a1 1 0 011 1v32a1 1 0 010 1h-2zM1100 572v-16a1 1 0 010-1h29a8 8 0 011 0c1 0 2 0 2 2v31l-2 1a5 5 0 01-1 0h-28l-1-1v-1zM1205 651v15c0 2 0 2-2 2h-28a5 5 0 01-1 0 1 1 0 01-1-1v-30c0-3 0-3 3-3h27l2 1v16z" class="d"/></g></g><g class="b"><g class="c"><path d="M109 99v15l-1 2H79c-2 0-2 0-2-2V83c0-1 0-2 2-2h29l1 2v16zM41 99V83l1-2h29c2 0 2 1 2 3v30c0 2-1 2-2 2H42l-1-2V99zM57 155H42c-1 0-2 0-2-2v-30c0-2 1-2 3-2h27a9 9 0 012 0 1 1 0 011 1v31c0 2-1 2-2 2H57zM93 121h15l1 1v32a1 1 0 01-1 1H78l-1-1v-32a1 1 0 011-1 10 10 0 011 0zM4 3h31l1 1v31c0 2 0 2-2 2H5l-1-2V4 3zM36 115l-32 1V83c0-1 0-2 2-2h28c2 0 2 1 2 2v31a2 2 0 010 1zM36 76H4a2 2 0 010-2V43a1 1 0 011-1h29a3 3 0 012 0zM20 121h15a1 1 0 011 1v32a1 1 0 01-1 1H5a1 1 0 01-1-1v-32a1 1 0 011-1h1zM146 138v16a1 1 0 01-1 1h-30l-1-1v-32l1-1a5 5 0 011 0h28l2 1v1zM41 59V44c0-2 0-2 2-2h28a6 6 0 011 0 1 1 0 011 1v30c0 3 0 3-3 3H42l-1-1V59z" class="d"/></g><g class="c"><path d="M111 58V43c0-2 0-2 2-2h29l1 2v31l-1 2h-29c-2 0-2 0-2-2V58zM180 58v15c0 3 0 3-2 3h-28c-2 0-2-1-2-3V43c0-2 0-2 2-2h28c2 0 2 0 2 2v15zM164 2h14c2 0 2 0 2 2v30c0 2 0 2-2 2h-28a9 9 0 01-1 0 1 1 0 01-1-1V4l1-2h1zM127 36h-14l-2-1V3a1 1 0 011-1h30l1 1v32a1 1 0 010 1 12 12 0 01-2 0zM216 154h-31a2 2 0 010-1v-31l1-2h29c2 0 2 0 2 2v31a9 9 0 01-1 1zM185 42l31-1v33l-1 1h-29l-1-1V43a2 2 0 010-1zM185 81h31a2 2 0 010 2v31a1 1 0 010 1h-29a3 3 0 01-2 0zM200 36h-14a1 1 0 01-1-1V3a1 1 0 011-1h29a1 1 0 011 1v32a1 1 0 010 1h-2zM75 19V3a1 1 0 010-1h29a8 8 0 011 0c1 0 2 0 2 2v31l-2 1a5 5 0 01-1 0H76l-1-1v-1zM180 98v15c0 2 0 2-2 2h-28a5 5 0 01-1 0 1 1 0 01-1-1V84c0-3 0-3 3-3h27l2 1v16z" class="d"/></g><g class="c"><path d="M366 99v15l-1 2h-29c-2 0-2 0-2-2V83c0-1 0-2 2-2h29l1 2v16zM298 99V83l1-2h29c2 0 2 1 2 3v30c0 2-1 2-2 2h-29l-1-2V99zM314 155h-15c-1 0-2 0-2-2v-30c0-2 1-2 3-2h27a9 9 0 012 0 1 1 0 011 1v31c0 2-1 2-2 2h-14zM350 121h15l1 1v32a1 1 0 01-1 1h-30l-1-1v-32a1 1 0 011-1 10 10 0 011 0zM261 3h31l1 1v31c0 2 0 2-2 2h-29l-1-2V4 3zM293 115l-32 1V83c0-1 0-2 2-2h28c2 0 2 1 2 2v31a2 2 0 010 1zM293 76h-32a2 2 0 010-2V43a1 1 0 011-1h29a3 3 0 012 0zM277 121h15a1 1 0 011 1v32a1 1 0 01-1 1h-30a1 1 0 01-1-1v-32a1 1 0 011-1h1zM403 138v16a1 1 0 01-1 1h-30l-1-1v-32l1-1a5 5 0 011 0h28l2 1v1zM298 59V44c0-2 0-2 2-2h28a6 6 0 011 0 1 1 0 011 1v30c0 3 0 3-3 3h-28l-1-1V59z" class="d"/></g><g class="c"><path d="M368 58V43c0-2 0-2 2-2h29l1 2v31l-1 2h-29c-2 0-2 0-2-2V58zM437 58v15c0 3 0 3-2 3h-28c-2 0-2-1-2-3V43c0-2 0-2 2-2h28c2 0 2 0 2 2v15zM421 2h14c2 0 2 0 2 2v30c0 2 0 2-2 2h-28a9 9 0 01-1 0 1 1 0 01-1-1V4l1-2h1zM384 36h-14l-2-1V3a1 1 0 011-1h30l1 1v32a1 1 0 010 1 12 12 0 01-2 0zM473 154h-31a2 2 0 010-1v-31l1-2h29c1 0 2 0 2 2v31a9 9 0 01-1 1zM442 42l31-1v33l-1 1h-29l-1-1V43a2 2 0 010-1zM442 81h31a2 2 0 010 2v31a1 1 0 010 1h-29a3 3 0 01-2 0zM457 36h-14a1 1 0 01-1-1V3a1 1 0 010-1 1 1 0 011 0h29a1 1 0 011 1v32a1 1 0 010 1h-2zM332 19V3a1 1 0 010-1h29a8 8 0 011 0c1 0 2 0 2 2v31l-2 1a5 5 0 01-1 0h-28l-1-1v-1zM437 98v15c0 2 0 2-2 2h-28a5 5 0 01-1 0 1 1 0 01-1-1V84c0-3 0-3 3-3h27l2 1v16z" class="d"/></g><g class="c"><path d="M623 99v15l-1 2h-29c-2 0-2 0-2-2V83c0-1 0-2 2-2h29l1 2v16zM555 99V83l1-2h29c2 0 2 1 2 3v30c0 2-1 2-2 2h-29l-1-2V99zM571 155h-15c-1 0-2 0-2-2v-30c0-2 1-2 3-2h27a9 9 0 012 0 1 1 0 011 1v31c0 2-1 2-2 2h-14zM607 121h15l1 1v32a1 1 0 01-1 1h-30l-1-1v-32a1 1 0 011-1 10 10 0 011 0zM518 3h31l1 1v31c0 2 0 2-2 2h-29l-1-2V4 3zM550 115l-32 1V83c0-1 0-2 2-2h28c2 0 2 1 2 2v31a2 2 0 010 1zM550 76h-32a2 2 0 010-2V43a1 1 0 011-1h29a3 3 0 012 0zM534 121h15a1 1 0 011 1v32a1 1 0 01-1 1h-30a1 1 0 01-1-1v-32a1 1 0 011-1h1zM660 138v16a1 1 0 01-1 1h-30l-1-1v-32l1-1a5 5 0 011 0h28l2 1v1zM555 59V44c0-2 0-2 2-2h28a6 6 0 011 0 1 1 0 011 1v30c0 3 0 3-3 3h-28l-1-1V59z" class="d"/></g><g class="c"><path d="M625 58V43c0-2 0-2 2-2h29l1 2v31l-1 2h-29c-2 0-2 0-2-2V58zM694 58v15c0 3 0 3-2 3h-28c-2 0-2-1-2-3V43c0-2 0-2 2-2h28c2 0 2 0 2 2v15zM678 2h14c2 0 2 0 2 2v30c0 2 0 2-2 2h-28a9 9 0 01-1 0 1 1 0 01-1-1V4l1-2h1zM641 36h-14l-2-1V3a1 1 0 011-1h30l1 1v32a1 1 0 010 1 12 12 0 01-2 0zM730 154h-31a2 2 0 010-1v-31l1-2h29c2 0 2 0 2 2v31a9 9 0 01-1 1zM699 42l31-1v33l-1 1h-29l-1-1V43a2 2 0 010-1zM699 81h31a2 2 0 010 2v31a1 1 0 010 1h-29a3 3 0 01-2 0zM714 36h-14a1 1 0 01-1-1V3a1 1 0 010-1 1 1 0 011 0h29a1 1 0 011 1v32a1 1 0 010 1h-2zM589 19V3a1 1 0 010-1h29a8 8 0 011 0c1 0 2 0 2 2v31l-2 1a5 5 0 01-1 0h-28l-1-1v-1zM694 98v15c0 2 0 2-2 2h-28a5 5 0 01-1 0 1 1 0 01-1-1V84c0-3 0-3 3-3h27l2 1v16z" class="d"/></g><g class="c"><path d="M880 99v15l-1 2h-29c-2 0-2 0-2-2V83c0-1 0-2 2-2h29l1 2v16zM812 99V83l1-2h29c2 0 2 1 2 3v30c0 2-1 2-2 2h-29l-1-2V99zM828 155h-15c-1 0-2 0-2-2v-30c0-2 1-2 3-2h27a9 9 0 012 0 1 1 0 011 1v31c0 2-1 2-2 2h-14zM864 121h15l1 1v32a1 1 0 01-1 1h-30l-1-1v-32a1 1 0 011-1 10 10 0 011 0zM775 3h31l1 1v31c0 2 0 2-2 2h-29l-1-2V4 3zM807 115l-32 1V83c0-1 0-2 2-2h28c2 0 2 1 2 2v31a2 2 0 010 1zM807 76h-32a2 2 0 010-2V43a1 1 0 011-1h29a3 3 0 012 0zM791 121h15a1 1 0 011 1v32a1 1 0 01-1 1h-30a1 1 0 01-1-1v-32a1 1 0 011-1h1zM917 138v16a1 1 0 01-1 1h-30l-1-1v-32l1-1a5 5 0 011 0h28l2 1v1zM812 59V44c0-2 0-2 2-2h28a6 6 0 011 0 1 1 0 011 1v30c0 3 0 3-3 3h-28l-1-1V59z" class="d"/></g><g class="c"><path d="M882 58V43c0-2 0-2 2-2h29l1 2v31l-1 2h-29c-2 0-2 0-2-2V58zM951 58v15c0 3 0 3-2 3h-28c-2 0-2-1-2-3V43c0-2 0-2 2-2h28c2 0 2 0 2 2v15zM935 2h14c2 0 2 0 2 2v30c0 2 0 2-2 2h-28a9 9 0 01-1 0 1 1 0 01-1-1V4l1-2h1zM898 36h-14l-2-1V3a1 1 0 011-1h30l1 1v32a1 1 0 010 1 12 12 0 01-2 0zM987 154h-31a2 2 0 010-1v-31l1-2h29c2 0 2 0 2 2v31a9 9 0 01-1 1zM956 42l31-1v33l-1 1h-29l-1-1V43a2 2 0 010-1zM956 81h31a2 2 0 010 2v31a1 1 0 010 1h-29a3 3 0 01-2 0zM971 36h-14a1 1 0 01-1-1V3a1 1 0 010-1 1 1 0 011 0h29a1 1 0 011 1v32a1 1 0 010 1h-2zM846 19V3a1 1 0 010-1h29a8 8 0 011 0c1 0 2 0 2 2v31l-2 1a5 5 0 01-1 0h-28l-1-1v-1zM951 98v15c0 2 0 2-2 2h-28a5 5 0 01-1 0 1 1 0 01-1-1V84c0-3 0-3 3-3h27l2 1v16z" class="d"/></g><g class="c"><path d="M1137 99v15l-1 2h-29c-2 0-2 0-2-2V83c0-1 0-2 2-2h29l1 2v16zM1069 99V83l1-2h29c2 0 2 1 2 3v30c0 2-1 2-2 2h-29l-1-2V99zM1085 155h-15c-1 0-2 0-2-2v-30c0-2 1-2 3-2h27a9 9 0 012 0 1 1 0 011 1v31c0 2-1 2-2 2h-14zM1121 121h15l1 1v32a1 1 0 01-1 1h-30l-1-1v-32a1 1 0 011-1 10 10 0 011 0zM1032 3h31l1 1v31c0 2 0 2-2 2h-29l-1-2V4 3zM1064 115l-32 1V83c0-1 0-2 2-2h28c2 0 2 1 2 2v31a2 2 0 010 1zM1064 76h-32a2 2 0 010-2V43a1 1 0 011-1h29a3 3 0 012 0zM1048 121h15a1 1 0 011 1v32a1 1 0 01-1 1h-30a1 1 0 01-1-1v-32a1 1 0 011-1h1zM1174 138v16a1 1 0 01-1 1h-30l-1-1v-32l1-1a5 5 0 011 0h28l2 1v1zM1069 59V44c0-2 0-2 2-2h28a6 6 0 011 0 1 1 0 011 1v30c0 3 0 3-3 3h-28l-1-1V59z" class="d"/></g><g class="c"><path d="M1139 58V43c0-2 0-2 2-2h29l1 2v31l-1 2h-29c-2 0-2 0-2-2V58zM1208 58v15c0 3 0 3-2 3h-28c-2 0-2-1-2-3V43c0-2 0-2 2-2h28c2 0 2 0 2 2v15zM1192 2h14c2 0 2 0 2 2v30c0 2 0 2-2 2h-28a9 9 0 01-1 0 1 1 0 01-1-1V4l1-2h1zM1155 36h-14l-2-1V3a1 1 0 011-1h30l1 1v32a1 1 0 010 1 12 12 0 01-2 0zM1244 154h-31a2 2 0 010-1v-31l1-2h29c2 0 2 0 2 2v31a9 9 0 01-1 1zM1213 42l31-1v33l-1 1h-29l-1-1V43a2 2 0 010-1zM1213 81h31a2 2 0 010 2v31a1 1 0 010 1h-29a3 3 0 01-2 0zM1228 36h-14a1 1 0 01-1-1V3a1 1 0 010-1 1 1 0 011 0h29a1 1 0 011 1v32a1 1 0 010 1h-2zM1103 19V3a1 1 0 010-1h29a8 8 0 011 0c1 0 2 0 2 2v31l-2 1a5 5 0 01-1 0h-28l-1-1v-1zM1208 98v15c0 2 0 2-2 2h-28a5 5 0 01-1 0 1 1 0 01-1-1V84c0-3 0-3 3-3h27l2 1v16z" class="d"/></g></g><g class="b"><g class="c"><path d="M108 283v15l-1 2H78c-2 0-2 0-2-2v-31c0-1 0-2 2-2h29l1 2v16zM40 283v-16l1-2h29c2 0 2 1 2 3v30c0 2-1 2-2 2H41l-1-2v-15zM56 339H41c-1 0-2 0-2-2v-30c0-2 1-2 3-2h27a9 9 0 012 0 1 1 0 011 1v31c0 2-1 2-2 2H56zM92 305h15l1 1v32a1 1 0 01-1 1H77l-1-1v-32a1 1 0 011-1 10 10 0 011 0zM3 187h31l1 1v31c0 2 0 2-2 2H4l-1-2v-31-1zM35 299l-32 1v-33c0-1 0-2 2-2h28c2 0 2 1 2 2v31a2 2 0 010 1zM35 260H3a2 2 0 010-2v-31a1 1 0 011-1h29a3 3 0 012 0zM19 305h15a1 1 0 011 1v32a1 1 0 01-1 1H4a1 1 0 01-1-1v-32a1 1 0 011-1h1zM145 322v16a1 1 0 01-1 1h-30l-1-1v-32l1-1a5 5 0 011 0h28l2 1v1zM40 243v-15c0-2 0-2 2-2h28a6 6 0 011 0 1 1 0 011 1v30c0 3 0 3-3 3H41l-1-1v-16z" class="d"/></g><g class="c"><path d="M110 242v-15c0-2 0-2 2-2h29l1 2v31l-1 2h-29c-2 0-2 0-2-2v-16zM179 242v16c0 2 0 2-2 2h-28c-2 0-2-1-2-3v-30c0-2 0-2 2-2h28c2 0 2 0 2 2v15zM163 186h14c2 0 2 0 2 2v30c0 2 0 2-2 2h-28a9 9 0 01-1 0 1 1 0 01-1-1v-31l1-2h1zM126 220h-14l-2-1v-32a1 1 0 011-1h30l1 1v32a1 1 0 010 1 12 12 0 01-2 0zM215 338h-31a2 2 0 010-1v-31l1-2h29c2 0 2 0 2 2v31a9 9 0 01-1 1zM184 226l31-1v33l-1 1-29 1-1-2v-31a2 2 0 010-1zM184 265h31a2 2 0 010 2v31a1 1 0 010 1h-29a3 3 0 01-2 0zM199 220h-14a1 1 0 01-1-1v-32a1 1 0 011-1h29a1 1 0 011 1v32a1 1 0 010 1h-2zM74 203v-16a1 1 0 010-1h29a8 8 0 011 0l2 1v32l-2 1a5 5 0 01-1 0H75l-1-1v-1zM179 282v15c0 2 0 2-2 2h-28a5 5 0 01-1 0 1 1 0 01-1-1v-30c0-3 0-3 3-3h27l2 1v16z" class="d"/></g><g class="c"><path d="M365 283v15l-1 2h-29c-2 0-2 0-2-2v-31c0-1 0-2 2-2h29l1 2v16zM297 283v-16l1-2h29c2 0 2 1 2 3v30c0 2-1 2-2 2h-29l-1-2v-15zM313 339h-15c-1 0-2 0-2-2v-30c0-2 1-2 3-2h27a9 9 0 012 0 1 1 0 011 1v31c0 2-1 2-2 2h-14zM349 305h15l1 1v32a1 1 0 01-1 1h-30l-1-1v-32a1 1 0 011-1 10 10 0 011 0zM260 187h31l1 1v31c0 2 0 2-2 2h-29l-1-2v-31-1zM292 299l-32 1v-33c0-1 0-2 2-2h28c2 0 2 1 2 2v31a2 2 0 010 1zM292 260h-32a2 2 0 010-2v-31a1 1 0 011-1h29a3 3 0 012 0zM276 305h15a1 1 0 011 1v32a1 1 0 01-1 1h-30a1 1 0 01-1-1v-32a1 1 0 011-1h1zM402 322v16a1 1 0 01-1 1h-30l-1-1v-32l1-1a5 5 0 011 0h28l2 1v1zM297 243v-15c0-2 0-2 2-2h28a6 6 0 011 0 1 1 0 011 1v30c0 3 0 3-3 3h-28l-1-1v-16z" class="d"/></g><g class="c"><path d="M367 242v-15c0-2 0-2 2-2h29l1 2v31l-1 2h-29c-2 0-2 0-2-2v-16zM436 242v16c0 2 0 2-2 2h-28c-2 0-2-1-2-3v-30c0-2 0-2 2-2h28c2 0 2 0 2 2v15zM420 186h14c2 0 2 0 2 2v30c0 2 0 2-2 2h-28a9 9 0 01-1 0 1 1 0 01-1-1v-31l1-2h1zM383 220h-14l-2-1v-32a1 1 0 011-1h30l1 1v32a1 1 0 010 1 12 12 0 01-2 0zM472 338h-31a2 2 0 010-1v-31l1-2h29c1 0 2 0 2 2v31a9 9 0 01-1 1zM441 226l31-1v33l-1 1-29 1-1-2v-31a2 2 0 010-1zM441 265h31a2 2 0 010 2v31a1 1 0 010 1h-29a3 3 0 01-2 0zM456 220h-14a1 1 0 01-1-1v-32a1 1 0 010-1 1 1 0 011 0h29a1 1 0 011 1v32a1 1 0 010 1h-2zM331 203v-16a1 1 0 010-1h29a8 8 0 011 0l2 1v32l-2 1a5 5 0 01-1 0h-28l-1-1v-1zM436 282v15c0 2 0 2-2 2h-28a5 5 0 01-1 0 1 1 0 01-1-1v-30c0-3 0-3 3-3h27l2 1v16z" class="d"/></g><g class="c"><path d="M622 283v15l-1 2h-29c-2 0-2 0-2-2v-31c0-1 0-2 2-2h29l1 2v16zM554 283v-16l1-2h29c2 0 2 1 2 3v30c0 2-1 2-2 2h-29l-1-2v-15zM570 339h-15c-1 0-2 0-2-2v-30c0-2 1-2 3-2h27a9 9 0 012 0 1 1 0 011 1v31c0 2-1 2-2 2h-14zM606 305h15l1 1v32a1 1 0 01-1 1h-30l-1-1v-32a1 1 0 011-1 10 10 0 011 0zM517 187h31l1 1v31c0 2 0 2-2 2h-29l-1-2v-31-1zM549 299l-32 1v-33c0-1 0-2 2-2h28c2 0 2 1 2 2v31a2 2 0 010 1zM549 260h-32a2 2 0 010-2v-31a1 1 0 011-1h29a3 3 0 012 0zM533 305h15a1 1 0 011 1v32a1 1 0 01-1 1h-30a1 1 0 01-1-1v-32a1 1 0 011-1h1zM659 322v16a1 1 0 01-1 1h-30l-1-1v-32l1-1a5 5 0 011 0h28l2 1v1zM554 243v-15c0-2 0-2 2-2h28a6 6 0 011 0 1 1 0 011 1v30c0 3 0 3-3 3h-28l-1-1v-16z" class="d"/></g><g class="c"><path d="M624 242v-15c0-2 0-2 2-2h29l1 2v31l-1 2h-29c-2 0-2 0-2-2v-16zM693 242v16c0 2 0 2-2 2h-28c-2 0-2-1-2-3v-30c0-2 0-2 2-2h28c2 0 2 0 2 2v15zM677 186h14c2 0 2 0 2 2v30c0 2 0 2-2 2h-28a9 9 0 01-1 0 1 1 0 01-1-1v-31l1-2h1zM640 220h-14l-2-1v-32a1 1 0 011-1h30l1 1v32a1 1 0 010 1 12 12 0 01-2 0zM729 338h-31a2 2 0 010-1v-31l1-2h29c2 0 2 0 2 2v31a9 9 0 01-1 1zM698 226l31-1v33l-1 1-29 1-1-2v-31a2 2 0 010-1zM698 265h31a2 2 0 010 2v31a1 1 0 010 1h-29a3 3 0 01-2 0zM713 220h-14a1 1 0 01-1-1v-32a1 1 0 010-1 1 1 0 011 0h29a1 1 0 011 1v32a1 1 0 010 1h-2zM588 203v-16a1 1 0 010-1h29a8 8 0 011 0l2 1v32l-2 1a5 5 0 01-1 0h-28l-1-1v-1zM693 282v15c0 2 0 2-2 2h-28a5 5 0 01-1 0 1 1 0 01-1-1v-30c0-3 0-3 3-3h27l2 1v16z" class="d"/></g><g class="c"><path d="M879 283v15l-1 2h-29c-2 0-2 0-2-2v-31c0-1 0-2 2-2h29l1 2v16zM811 283v-16l1-2h29c2 0 2 1 2 3v30c0 2-1 2-2 2h-29l-1-2v-15zM827 339h-15c-1 0-2 0-2-2v-30c0-2 1-2 3-2h27a9 9 0 012 0 1 1 0 011 1v31c0 2-1 2-2 2h-14zM863 305h15l1 1v32a1 1 0 01-1 1h-30l-1-1v-32a1 1 0 011-1 10 10 0 011 0zM774 187h31l1 1v31c0 2 0 2-2 2h-29l-1-2v-31-1zM806 299l-32 1v-33c0-1 0-2 2-2h28c2 0 2 1 2 2v31a2 2 0 010 1zM806 260h-32a2 2 0 010-2v-31a1 1 0 011-1h29a3 3 0 012 0zM790 305h15a1 1 0 011 1v32a1 1 0 01-1 1h-30a1 1 0 01-1-1v-32a1 1 0 011-1h1zM916 322v16a1 1 0 01-1 1h-30l-1-1v-32l1-1a5 5 0 011 0h28l2 1v1zM811 243v-15c0-2 0-2 2-2h28a6 6 0 011 0 1 1 0 011 1v30c0 3 0 3-3 3h-28l-1-1v-16z" class="d"/></g><g class="c"><path d="M881 242v-15c0-2 0-2 2-2h29l1 2v31l-1 2h-29c-2 0-2 0-2-2v-16zM950 242v16c0 2 0 2-2 2h-28c-2 0-2-1-2-3v-30c0-2 0-2 2-2h28c2 0 2 0 2 2v15zM934 186h14c2 0 2 0 2 2v30c0 2 0 2-2 2h-28a9 9 0 01-1 0 1 1 0 01-1-1v-31l1-2h1zM897 220h-14l-2-1v-32a1 1 0 011-1h30l1 1v32a1 1 0 010 1 12 12 0 01-2 0zM986 338h-31a2 2 0 010-1v-31l1-2h29c2 0 2 0 2 2v31a9 9 0 01-1 1zM955 226l31-1v33l-1 1-29 1-1-2v-31a2 2 0 010-1zM955 265h31a2 2 0 010 2v31a1 1 0 010 1h-29a3 3 0 01-2 0zM970 220h-14a1 1 0 01-1-1v-32a1 1 0 010-1 1 1 0 011 0h29a1 1 0 011 1v32a1 1 0 010 1h-2zM845 203v-16a1 1 0 010-1h29a8 8 0 011 0l2 1v32l-2 1a5 5 0 01-1 0h-28l-1-1v-1zM950 282v15c0 2 0 2-2 2h-28a5 5 0 01-1 0 1 1 0 01-1-1v-30c0-3 0-3 3-3h27l2 1v16z" class="d"/></g><g class="c"><path d="M1136 283v15l-1 2h-29c-2 0-2 0-2-2v-31c0-1 0-2 2-2h29l1 2v16zM1068 283v-16l1-2h29c2 0 2 1 2 3v30c0 2-1 2-2 2h-29l-1-2v-15zM1084 339h-15c-1 0-2 0-2-2v-30c0-2 1-2 3-2h27a9 9 0 012 0 1 1 0 011 1v31c0 2-1 2-2 2h-14zM1120 305h15l1 1v32a1 1 0 01-1 1h-30l-1-1v-32a1 1 0 011-1 10 10 0 011 0zM1031 187h31l1 1v31c0 2 0 2-2 2h-29l-1-2v-31-1zM1063 299l-32 1v-33c0-1 0-2 2-2h28c2 0 2 1 2 2v31a2 2 0 010 1zM1063 260h-32a2 2 0 010-2v-31a1 1 0 011-1h29a3 3 0 012 0zM1047 305h15a1 1 0 011 1v32a1 1 0 01-1 1h-30a1 1 0 01-1-1v-32a1 1 0 011-1h1zM1173 322v16a1 1 0 01-1 1h-30l-1-1v-32l1-1a5 5 0 011 0h28l2 1v1zM1068 243v-15c0-2 0-2 2-2h28a6 6 0 011 0 1 1 0 011 1v30c0 3 0 3-3 3h-28l-1-1v-16z" class="d"/></g><g class="c"><path d="M1138 242v-15c0-2 0-2 2-2h29l1 2v31l-1 2h-29c-2 0-2 0-2-2v-16zM1207 242v16c0 2 0 2-2 2h-28c-2 0-2-1-2-3v-30c0-2 0-2 2-2h28c2 0 2 0 2 2v15zM1191 186h14c2 0 2 0 2 2v30c0 2 0 2-2 2h-28a9 9 0 01-1 0 1 1 0 01-1-1v-31l1-2h1zM1154 220h-14l-2-1v-32a1 1 0 011-1h30l1 1v32a1 1 0 010 1 12 12 0 01-2 0zM1243 338h-31a2 2 0 010-1v-31l1-2h29c2 0 2 0 2 2v31a9 9 0 01-1 1zM1212 226l31-1v33l-1 1-29 1-1-2v-31a2 2 0 010-1zM1212 265h31a2 2 0 010 2v31a1 1 0 010 1h-29a3 3 0 01-2 0zM1227 220h-14a1 1 0 01-1-1v-32a1 1 0 010-1 1 1 0 011 0h29a1 1 0 011 1v32a1 1 0 010 1h-2zM1102 203v-16a1 1 0 010-1h29a8 8 0 011 0l2 1v32l-2 1a5 5 0 01-1 0h-28l-1-1v-1zM1207 282v15c0 2 0 2-2 2h-28a5 5 0 01-1 0 1 1 0 01-1-1v-30c0-3 0-3 3-3h27l2 1v16z" class="d"/></g></g><g class="b"><g class="c"><path d="M107 467v15l-1 2H77c-2 0-2 0-2-2v-31c0-1 0-2 2-2h29l1 2v16zM39 467v-16l1-2h29c2 0 2 1 2 3v30c0 2-1 2-2 2H40l-1-2v-15zM55 523H40c-1 0-2 0-2-2v-30c0-2 1-2 3-2h27a9 9 0 012 0 1 1 0 011 1v31c0 2-1 2-2 2H55zM91 489h15l1 1v32a1 1 0 01-1 1H76l-1-1v-32a1 1 0 011-1 10 10 0 011 0zM2 371h31l1 1v31c0 2 0 2-2 2H3l-1-2v-31-1zM34 483l-32 1v-33c0-1 0-2 2-2h28c2 0 2 1 2 2v31a2 2 0 010 1zM34 444H2a2 2 0 010-2v-31a1 1 0 011-1h29a3 3 0 012 0zM18 489h15a1 1 0 011 1v32a1 1 0 01-1 1H3a1 1 0 01-1-1v-32a1 1 0 011-1h1zM144 506v16a1 1 0 01-1 1h-30l-1-1v-32l1-1a5 5 0 011 0h28l2 1v1zM39 427v-15c0-2 0-2 2-2h28a6 6 0 011 0 1 1 0 011 1v30c0 3 0 3-3 3H40l-1-1v-16z" class="d"/></g><g class="c"><path d="M109 426v-15c0-2 0-2 2-2h29l1 2v31l-1 2h-29c-2 0-2 0-2-2v-16zM178 426v16c0 2 0 2-2 2h-28c-2 0-2-1-2-3v-30c0-2 0-2 2-2h28c2 0 2 0 2 2v15zM162 370h14c2 0 2 0 2 2v30c0 2 0 2-2 2h-28a9 9 0 01-1 0 1 1 0 01-1-1v-31l1-2h1zM125 404h-14l-2-1v-32a1 1 0 011-1h30l1 1v32a1 1 0 010 1 12 12 0 01-2 0zM214 522h-31a2 2 0 010-1v-31l1-2h29l2 1v32a9 9 0 01-1 1zM183 410l31-1v33l-1 1-29 1-1-2v-31a2 2 0 010-1zM183 449h31a2 2 0 010 2v31a1 1 0 010 1h-29a3 3 0 01-2 0zM198 404h-14a1 1 0 01-1-1v-32a1 1 0 011-1h29a1 1 0 011 1v32a1 1 0 010 1h-2zM73 387v-16a1 1 0 010-1h29a8 8 0 011 0l2 1v32l-2 1a5 5 0 01-1 0H74l-1-1v-1zM178 466v15c0 2 0 2-2 2h-28a5 5 0 01-1 0 1 1 0 01-1-1v-30c0-3 0-3 3-3h27l2 1v16z" class="d"/></g><g class="c"><path d="M364 467v15l-1 2h-29c-2 0-2 0-2-2v-31c0-1 0-2 2-2h29l1 2v16zM296 467v-16l1-2h29c2 0 2 1 2 3v30c0 2-1 2-2 2h-29l-1-2v-15zM312 523h-15c-1 0-2 0-2-2v-30c0-2 1-2 3-2h27a9 9 0 012 0 1 1 0 011 1v31c0 2-1 2-2 2h-14zM348 489h15l1 1v32a1 1 0 01-1 1h-30l-1-1v-32a1 1 0 011-1 10 10 0 011 0zM259 371h31l1 1v31c0 2 0 2-2 2h-29l-1-2v-31-1zM291 483l-32 1v-33c0-1 0-2 2-2h28c2 0 2 1 2 2v31a2 2 0 010 1zM291 444h-32a2 2 0 010-2v-31a1 1 0 011-1h29a3 3 0 012 0zM275 489h15a1 1 0 011 1v32a1 1 0 01-1 1h-30a1 1 0 01-1-1v-32a1 1 0 011-1h1zM401 506v16a1 1 0 01-1 1h-30l-1-1v-32l1-1a5 5 0 011 0h28l2 1v1zM296 427v-15c0-2 0-2 2-2h28a6 6 0 011 0 1 1 0 011 1v30c0 3 0 3-3 3h-28l-1-1v-16z" class="d"/></g><g class="c"><path d="M366 426v-15c0-2 0-2 2-2h29l1 2v31l-1 2h-29c-2 0-2 0-2-2v-16zM435 426v16c0 2 0 2-2 2h-28c-2 0-2-1-2-3v-30c0-2 0-2 2-2h28c2 0 2 0 2 2v15zM419 370h14c2 0 2 0 2 2v30c0 2 0 2-2 2h-28a9 9 0 01-1 0 1 1 0 01-1-1v-31l1-2h1zM382 404h-14l-2-1v-32a1 1 0 011-1h30l1 1v32a1 1 0 010 1 12 12 0 01-2 0zM471 522h-31a2 2 0 010-1v-31l1-2h29c1 0 2 0 2 2v31a9 9 0 01-1 1zM440 410l31-1v33l-1 1-29 1-1-2v-31a2 2 0 010-1zM440 449h31a2 2 0 010 2v31a1 1 0 010 1h-29a3 3 0 01-2 0zM455 404h-14a1 1 0 01-1-1v-32a1 1 0 010-1h30a1 1 0 011 1v32a1 1 0 010 1h-2zM330 387v-16a1 1 0 010-1h29a8 8 0 011 0l2 1v32l-2 1a5 5 0 01-1 0h-28l-1-1v-1zM435 466v15c0 2 0 2-2 2h-28a5 5 0 01-1 0 1 1 0 01-1-1v-30c0-3 0-3 3-3h27l2 1v16z" class="d"/></g><g class="c"><path d="M621 467v15l-1 2h-29c-2 0-2 0-2-2v-31c0-1 0-2 2-2h29l1 2v16zM553 467v-16l1-2h29c2 0 2 1 2 3v30c0 2-1 2-2 2h-29l-1-2v-15zM569 523h-15c-1 0-2 0-2-2v-30c0-2 1-2 3-2h27a9 9 0 012 0 1 1 0 011 1v31c0 2-1 2-2 2h-14zM605 489h15l1 1v32a1 1 0 01-1 1h-30l-1-1v-32a1 1 0 011-1 10 10 0 011 0zM516 371h31l1 1v31c0 2 0 2-2 2h-29l-1-2v-31-1zM548 483l-32 1v-33c0-1 0-2 2-2h28c2 0 2 1 2 2v31a2 2 0 010 1zM548 444h-32a2 2 0 010-2v-31a1 1 0 011-1h29a3 3 0 012 0zM532 489h15a1 1 0 011 1v32a1 1 0 01-1 1h-30a1 1 0 01-1-1v-32a1 1 0 011-1h1zM658 506v16a1 1 0 01-1 1h-30l-1-1v-32l1-1a5 5 0 011 0h28l2 1v1zM553 427v-15c0-2 0-2 2-2h28a6 6 0 011 0 1 1 0 011 1v30c0 3 0 3-3 3h-28l-1-1v-16z" class="d"/></g><g class="c"><path d="M623 426v-15c0-2 0-2 2-2h29l1 2v31l-1 2h-29c-2 0-2 0-2-2v-16zM692 426v16c0 2 0 2-2 2h-28c-2 0-2-1-2-3v-30c0-2 0-2 2-2h28c2 0 2 0 2 2v15zM676 370h14c2 0 2 0 2 2v30c0 2 0 2-2 2h-28a9 9 0 01-1 0 1 1 0 01-1-1v-31l1-2h1zM639 404h-14l-2-1v-32a1 1 0 011-1h30l1 1v32a1 1 0 010 1 12 12 0 01-2 0zM728 522h-31a2 2 0 010-1v-31l1-2h29l2 1v32a9 9 0 01-1 1zM697 410l31-1v33l-1 1-29 1-1-2v-31a2 2 0 010-1zM697 449h31a2 2 0 010 2v31a1 1 0 010 1h-29a3 3 0 01-2 0zM712 404h-14a1 1 0 01-1-1v-32a1 1 0 010-1h30a1 1 0 011 1v32a1 1 0 010 1h-2zM587 387v-16a1 1 0 010-1h29a8 8 0 011 0l2 1v32l-2 1a5 5 0 01-1 0h-28l-1-1v-1zM692 466v15c0 2 0 2-2 2h-28a5 5 0 01-1 0 1 1 0 01-1-1v-30c0-3 0-3 3-3h27l2 1v16z" class="d"/></g><g class="c"><path d="M878 467v15l-1 2h-29c-2 0-2 0-2-2v-31c0-1 0-2 2-2h29l1 2v16zM810 467v-16l1-2h29c2 0 2 1 2 3v30c0 2-1 2-2 2h-29l-1-2v-15zM826 523h-15c-1 0-2 0-2-2v-30c0-2 1-2 3-2h27a9 9 0 012 0 1 1 0 011 1v31c0 2-1 2-2 2h-14zM862 489h15l1 1v32a1 1 0 01-1 1h-30l-1-1v-32a1 1 0 011-1 10 10 0 011 0zM773 371h31l1 1v31c0 2 0 2-2 2h-29l-1-2v-31-1zM805 483l-32 1v-33c0-1 0-2 2-2h28c2 0 2 1 2 2v31a2 2 0 010 1zM805 444h-32a2 2 0 010-2v-31a1 1 0 011-1h29a3 3 0 012 0zM789 489h15a1 1 0 011 1v32a1 1 0 01-1 1h-30a1 1 0 01-1-1v-32a1 1 0 011-1h1zM915 506v16a1 1 0 01-1 1h-30l-1-1v-32l1-1a5 5 0 011 0h28l2 1v1zM810 427v-15c0-2 0-2 2-2h28a6 6 0 011 0 1 1 0 011 1v30c0 3 0 3-3 3h-28l-1-1v-16z" class="d"/></g><g class="c"><path d="M880 426v-15c0-2 0-2 2-2h29l1 2v31l-1 2h-29c-2 0-2 0-2-2v-16zM949 426v16c0 2 0 2-2 2h-28c-2 0-2-1-2-3v-30c0-2 0-2 2-2h28c2 0 2 0 2 2v15zM933 370h14c2 0 2 0 2 2v30c0 2 0 2-2 2h-28a9 9 0 01-1 0 1 1 0 01-1-1v-31l1-2h1zM896 404h-14l-2-1v-32a1 1 0 011-1h30l1 1v32a1 1 0 010 1 12 12 0 01-2 0zM985 522h-31a2 2 0 010-1v-31l1-2h29l2 1v32a9 9 0 01-1 1zM954 410l31-1v33l-1 1-29 1-1-2v-31a2 2 0 010-1zM954 449h31a2 2 0 010 2v31a1 1 0 010 1h-29a3 3 0 01-2 0zM969 404h-14a1 1 0 01-1-1v-32a1 1 0 010-1h30a1 1 0 011 1v32a1 1 0 010 1h-2zM844 387v-16a1 1 0 010-1h29a8 8 0 011 0l2 1v32l-2 1a5 5 0 01-1 0h-28l-1-1v-1zM949 466v15c0 2 0 2-2 2h-28a5 5 0 01-1 0 1 1 0 01-1-1v-30c0-3 0-3 3-3h27l2 1v16z" class="d"/></g><g class="c"><path d="M1135 467v15l-1 2h-29c-2 0-2 0-2-2v-31c0-1 0-2 2-2h29l1 2v16zM1067 467v-16l1-2h29c2 0 2 1 2 3v30c0 2-1 2-2 2h-29l-1-2v-15zM1083 523h-15c-1 0-2 0-2-2v-30c0-2 1-2 3-2h27a9 9 0 012 0 1 1 0 011 1v31c0 2-1 2-2 2h-14zM1119 489h15l1 1v32a1 1 0 01-1 1h-30l-1-1v-32a1 1 0 011-1 10 10 0 011 0zM1030 371h31l1 1v31c0 2 0 2-2 2h-29l-1-2v-31-1zM1062 483l-32 1v-33c0-1 0-2 2-2h28c2 0 2 1 2 2v31a2 2 0 010 1zM1062 444h-32a2 2 0 010-2v-31a1 1 0 011-1h29a3 3 0 012 0zM1046 489h15a1 1 0 011 1v32a1 1 0 01-1 1h-30a1 1 0 01-1-1v-32a1 1 0 011-1h1zM1172 506v16a1 1 0 01-1 1h-30l-1-1v-32l1-1a5 5 0 011 0h28l2 1v1zM1067 427v-15c0-2 0-2 2-2h28a6 6 0 011 0 1 1 0 011 1v30c0 3 0 3-3 3h-28l-1-1v-16z" class="d"/></g><g class="c"><path d="M1137 426v-15c0-2 0-2 2-2h29l1 2v31l-1 2h-29c-2 0-2 0-2-2v-16zM1206 426v16c0 2 0 2-2 2h-28c-2 0-2-1-2-3v-30c0-2 0-2 2-2h28c2 0 2 0 2 2v15zM1190 370h14c2 0 2 0 2 2v30c0 2 0 2-2 2h-28a9 9 0 01-1 0 1 1 0 01-1-1v-31l1-2h1zM1153 404h-14l-2-1v-32a1 1 0 011-1h30l1 1v32a1 1 0 010 1 12 12 0 01-2 0zM1242 522h-31a2 2 0 010-1v-31l1-2h29l2 1v32a9 9 0 01-1 1zM1211 410l31-1v33l-1 1-29 1-1-2v-31a2 2 0 010-1zM1211 449h31a2 2 0 010 2v31a1 1 0 010 1h-29a3 3 0 01-2 0zM1226 404h-14a1 1 0 01-1-1v-32a1 1 0 010-1h30a1 1 0 011 1v32a1 1 0 010 1h-2zM1101 387v-16a1 1 0 010-1h29a8 8 0 011 0l2 1v32l-2 1a5 5 0 01-1 0h-28l-1-1v-1zM1206 466v15c0 2 0 2-2 2h-28a5 5 0 01-1 0 1 1 0 01-1-1v-30c0-3 0-3 3-3h27l2 1v16z" class="d"/></g></g><g class="b"><g class="c"><path d="M106 651v15l-1 2H76c-2 0-2 0-2-2v-31c0-1 0-2 2-2h29l1 2v16zM38 651v-16l1-2h29c2 0 2 1 2 3v30c0 2-1 2-2 2H39l-1-2v-15zM54 707H39c-1 0-2 0-2-2v-30c0-2 1-2 3-2h27a9 9 0 012 0 1 1 0 011 1v31c0 2-1 2-2 2H54zM90 673h15l1 1v32a1 1 0 01-1 1H75l-1-1v-32a1 1 0 011-1 10 10 0 011 0zM1 555h31l1 1v31c0 2 0 2-2 2H2l-1-2v-31-1zM33 667l-32 1v-33c0-1 0-2 2-2h28c2 0 2 1 2 2v31a2 2 0 010 1zM33 628H1a2 2 0 010-2v-31a1 1 0 011-1h29a3 3 0 012 0zM17 673h15a1 1 0 011 1v32a1 1 0 01-1 1H2a1 1 0 01-1-1v-32a1 1 0 011-1h1zM143 690v16a1 1 0 01-1 1h-30l-1-1v-32l1-1a5 5 0 011 0h28l2 1v1zM38 611v-15c0-2 0-2 2-2h28a6 6 0 011 0 1 1 0 011 1v30c0 3 0 3-3 3H39l-1-1v-16z" class="d"/></g><g class="c"><path d="M108 610v-15c0-2 0-2 2-2h29l1 2v31l-1 2h-29c-2 0-2 0-2-2v-16zM177 610v16c0 2 0 2-2 2h-28c-2 0-2-1-2-3v-30c0-2 0-2 2-2h28c2 0 2 0 2 2v15zM161 554h14c2 0 2 0 2 2v30c0 2 0 2-2 2h-28a9 9 0 01-1 0 1 1 0 01-1-1v-31l1-2h1zM124 588h-14l-2-1v-32a1 1 0 011-1h30l1 1v32a1 1 0 010 1 12 12 0 01-2 0zM213 706h-31a2 2 0 010-1v-31l1-2h29l2 1v32a9 9 0 01-1 1zM182 594l31-1v33l-1 1-29 1-1-2v-31a2 2 0 010-1zM182 633h31a2 2 0 010 2v31a1 1 0 010 1h-29a3 3 0 01-2 0zM197 588h-14a1 1 0 01-1-1v-32a1 1 0 011-1h29a1 1 0 011 1v32a1 1 0 010 1h-2zM72 571v-16a1 1 0 010-1h29a8 8 0 011 0c1 0 2 0 2 2v31l-2 1a5 5 0 01-1 0H73l-1-1v-1zM177 650v15c0 2 0 2-2 2h-28a5 5 0 01-1 0 1 1 0 01-1-1v-30c0-3 0-3 3-3h27l2 1v16z" class="d"/></g><g class="c"><path d="M363 651v15l-1 2h-29c-2 0-2 0-2-2v-31c0-1 0-2 2-2h29l1 2v16zM295 651v-16l1-2h29c2 0 2 1 2 3v30c0 2-1 2-2 2h-29l-1-2v-15zM311 707h-15c-1 0-2 0-2-2v-30c0-2 1-2 3-2h27a9 9 0 012 0 1 1 0 011 1v31c0 2-1 2-2 2h-14zM347 673h15l1 1v32a1 1 0 01-1 1h-30l-1-1v-32a1 1 0 011-1 10 10 0 011 0zM258 555h31l1 1v31c0 2 0 2-2 2h-29l-1-2v-31-1zM290 667l-32 1v-33c0-1 0-2 2-2h28c2 0 2 1 2 2v31a2 2 0 010 1zM290 628h-32a2 2 0 010-2v-31a1 1 0 011-1h29a3 3 0 012 0zM274 673h15a1 1 0 011 1v32a1 1 0 01-1 1h-30a1 1 0 01-1-1v-32a1 1 0 011-1h1zM400 690v16a1 1 0 01-1 1h-30l-1-1v-32l1-1a5 5 0 011 0h28l2 1v1zM295 611v-15c0-2 0-2 2-2h28a6 6 0 011 0 1 1 0 011 1v30c0 3 0 3-3 3h-28l-1-1v-16z" class="d"/></g><g class="c"><path d="M365 610v-15c0-2 0-2 2-2h29l1 2v31l-1 2h-29c-2 0-2 0-2-2v-16zM434 610v16c0 2 0 2-2 2h-28c-2 0-2-1-2-3v-30c0-2 0-2 2-2h28c2 0 2 0 2 2v15zM418 554h14c2 0 2 0 2 2v30c0 2 0 2-2 2h-28a9 9 0 01-1 0 1 1 0 01-1-1v-31l1-2h1zM381 588h-14l-2-1v-32a1 1 0 011-1h30l1 1v32a1 1 0 010 1 12 12 0 01-2 0zM470 706h-31a2 2 0 010-1v-31l1-2h29c1 0 2 0 2 2v31a9 9 0 01-1 1zM439 594l31-1v33l-1 1-29 1-1-2v-31a2 2 0 010-1zM439 633h31a2 2 0 010 2v31a1 1 0 010 1h-29a3 3 0 01-2 0zM454 588h-14a1 1 0 01-1-1v-32a1 1 0 010-1h30a1 1 0 011 1v32a1 1 0 010 1h-2zM329 571v-16a1 1 0 010-1h29a8 8 0 011 0c1 0 2 0 2 2v31l-2 1a5 5 0 01-1 0h-28l-1-1v-1zM434 650v15c0 2 0 2-2 2h-28a5 5 0 01-1 0 1 1 0 01-1-1v-30c0-3 0-3 3-3h27l2 1v16z" class="d"/></g><g class="c"><path d="M620 651v15l-1 2h-29c-2 0-2 0-2-2v-31c0-1 0-2 2-2h29l1 2v16zM552 651v-16l1-2h29c2 0 2 1 2 3v30c0 2-1 2-2 2h-29l-1-2v-15zM568 707h-15c-1 0-2 0-2-2v-30c0-2 1-2 3-2h27a9 9 0 012 0 1 1 0 011 1v31c0 2-1 2-2 2h-14zM604 673h15l1 1v32a1 1 0 01-1 1h-30l-1-1v-32a1 1 0 011-1 10 10 0 011 0zM515 555h31l1 1v31c0 2 0 2-2 2h-29l-1-2v-31-1zM547 667l-32 1v-33c0-1 0-2 2-2h28c2 0 2 1 2 2v31a2 2 0 010 1zM547 628h-32a2 2 0 010-2v-31a1 1 0 011-1h29a3 3 0 012 0zM531 673h15a1 1 0 011 1v32a1 1 0 01-1 1h-30a1 1 0 01-1-1v-32a1 1 0 011-1h1zM657 690v16a1 1 0 01-1 1h-30l-1-1v-32l1-1a5 5 0 011 0h28l2 1v1zM552 611v-15c0-2 0-2 2-2h28a6 6 0 011 0 1 1 0 011 1v30c0 3 0 3-3 3h-28l-1-1v-16z" class="d"/></g><g class="c"><path d="M622 610v-15c0-2 0-2 2-2h29l1 2v31l-1 2h-29c-2 0-2 0-2-2v-16zM691 610v16c0 2 0 2-2 2h-28c-2 0-2-1-2-3v-30c0-2 0-2 2-2h28c2 0 2 0 2 2v15zM675 554h14c2 0 2 0 2 2v30c0 2 0 2-2 2h-28a9 9 0 01-1 0 1 1 0 01-1-1v-31l1-2h1zM638 588h-14l-2-1v-32a1 1 0 011-1h30l1 1v32a1 1 0 010 1 12 12 0 01-2 0zM727 706h-31a2 2 0 010-1v-31l1-2h29l2 1v32a9 9 0 01-1 1zM696 594l31-1v33l-1 1-29 1-1-2v-31a2 2 0 010-1zM696 633h31a2 2 0 010 2v31a1 1 0 010 1h-29a3 3 0 01-2 0zM711 588h-14a1 1 0 01-1-1v-32a1 1 0 010-1h30a1 1 0 011 1v32a1 1 0 010 1h-2zM586 571v-16a1 1 0 010-1h29a8 8 0 011 0c1 0 2 0 2 2v31l-2 1a5 5 0 01-1 0h-28l-1-1v-1zM691 650v15c0 2 0 2-2 2h-28a5 5 0 01-1 0 1 1 0 01-1-1v-30c0-3 0-3 3-3h27l2 1v16z" class="d"/></g><g class="c"><path d="M877 651v15l-1 2h-29c-2 0-2 0-2-2v-31c0-1 0-2 2-2h29l1 2v16zM809 651v-16l1-2h29c2 0 2 1 2 3v30c0 2-1 2-2 2h-29l-1-2v-15zM825 707h-15c-1 0-2 0-2-2v-30c0-2 1-2 3-2h27a9 9 0 012 0 1 1 0 011 1v31c0 2-1 2-2 2h-14zM861 673h15l1 1v32a1 1 0 01-1 1h-30l-1-1v-32a1 1 0 011-1 10 10 0 011 0zM772 555h31l1 1v31c0 2 0 2-2 2h-29l-1-2v-31-1zM804 667l-32 1v-33c0-1 0-2 2-2h28c2 0 2 1 2 2v31a2 2 0 010 1zM804 628h-32a2 2 0 010-2v-31a1 1 0 011-1h29a3 3 0 012 0zM788 673h15a1 1 0 011 1v32a1 1 0 01-1 1h-30a1 1 0 01-1-1v-32a1 1 0 011-1h1zM914 690v16a1 1 0 01-1 1h-30l-1-1v-32l1-1a5 5 0 011 0h28l2 1v1zM809 611v-15c0-2 0-2 2-2h28a6 6 0 011 0 1 1 0 011 1v30c0 3 0 3-3 3h-28l-1-1v-16z" class="d"/></g><g class="c"><path d="M879 610v-15c0-2 0-2 2-2h29l1 2v31l-1 2h-29c-2 0-2 0-2-2v-16zM948 610v16c0 2 0 2-2 2h-28c-2 0-2-1-2-3v-30c0-2 0-2 2-2h28c2 0 2 0 2 2v15zM932 554h14c2 0 2 0 2 2v30c0 2 0 2-2 2h-28a9 9 0 01-1 0 1 1 0 01-1-1v-31l1-2h1zM895 588h-14l-2-1v-32a1 1 0 011-1h30l1 1v32a1 1 0 010 1 12 12 0 01-2 0zM984 706h-31a2 2 0 010-1v-31l1-2h29l2 1v32a9 9 0 01-1 1zM953 594l31-1v33l-1 1-29 1-1-2v-31a2 2 0 010-1zM953 633h31a2 2 0 010 2v31a1 1 0 010 1h-29a3 3 0 01-2 0zM968 588h-14a1 1 0 01-1-1v-32a1 1 0 010-1h30a1 1 0 011 1v32a1 1 0 010 1h-2zM843 571v-16a1 1 0 010-1h29a8 8 0 011 0c1 0 2 0 2 2v31l-2 1a5 5 0 01-1 0h-28l-1-1v-1zM948 650v15c0 2 0 2-2 2h-28a5 5 0 01-1 0 1 1 0 01-1-1v-30c0-3 0-3 3-3h27l2 1v16z" class="d"/></g><g class="c"><path d="M1134 651v15l-1 2h-29c-2 0-2 0-2-2v-31c0-1 0-2 2-2h29l1 2v16zM1066 651v-16l1-2h29c2 0 2 1 2 3v30c0 2-1 2-2 2h-29l-1-2v-15zM1082 707h-15c-1 0-2 0-2-2v-30c0-2 1-2 3-2h27a9 9 0 012 0 1 1 0 011 1v31c0 2-1 2-2 2h-14zM1118 673h15l1 1v32a1 1 0 01-1 1h-30l-1-1v-32a1 1 0 011-1 10 10 0 011 0zM1029 555h31l1 1v31c0 2 0 2-2 2h-29l-1-2v-31-1zM1061 667l-32 1v-33c0-1 0-2 2-2h28c2 0 2 1 2 2v31a2 2 0 010 1zM1061 628h-32a2 2 0 010-2v-31a1 1 0 011-1h29a3 3 0 012 0zM1045 673h15a1 1 0 011 1v32a1 1 0 01-1 1h-30a1 1 0 01-1-1v-32a1 1 0 011-1h1zM1171 690v16a1 1 0 01-1 1h-30l-1-1v-32l1-1a5 5 0 011 0h28l2 1v1zM1066 611v-15c0-2 0-2 2-2h28a6 6 0 011 0 1 1 0 011 1v30c0 3 0 3-3 3h-28l-1-1v-16z" class="d"/></g><g class="c"><path d="M1136 610v-15c0-2 0-2 2-2h29l1 2v31l-1 2h-29c-2 0-2 0-2-2v-16zM1205 610v16c0 2 0 2-2 2h-28c-2 0-2-1-2-3v-30c0-2 0-2 2-2h28c2 0 2 0 2 2v15zM1189 554h14c2 0 2 0 2 2v30c0 2 0 2-2 2h-28a9 9 0 01-1 0 1 1 0 01-1-1v-31l1-2h1zM1152 588h-14l-2-1v-32a1 1 0 011-1h30l1 1v32a1 1 0 010 1 12 12 0 01-2 0zM1241 706h-31a2 2 0 010-1v-31l1-2h29l2 1v32a9 9 0 01-1 1zM1210 594l31-1v33l-1 1-29 1-1-2v-31a2 2 0 010-1zM1210 633h31a2 2 0 010 2v31a1 1 0 010 1h-29a3 3 0 01-2 0zM1225 588h-14a1 1 0 01-1-1v-32a1 1 0 010-1h30a1 1 0 011 1v32a1 1 0 010 1h-2zM1100 571v-16a1 1 0 010-1h29a8 8 0 011 0c1 0 2 0 2 2v31l-2 1a5 5 0 01-1 0h-28l-1-1v-1zM1205 650v15c0 2 0 2-2 2h-28a5 5 0 01-1 0 1 1 0 01-1-1v-30c0-3 0-3 3-3h27l2 1v16z" class="d"/></g></g><g class="b"><g class="c"><path d="M109 98v15l-1 2H79c-2 0-2 0-2-2V82c0-1 0-2 2-2h29l1 2v16zM41 98V82l1-2h29c2 0 2 1 2 3v30c0 2-1 2-2 2H42l-1-2V98zM57 154H42c-1 0-2 0-2-2v-30c0-2 1-2 3-2h27a9 9 0 012 0 1 1 0 011 1v31c0 2-1 2-2 2H57zM93 120h15l1 1v32a1 1 0 01-1 1H78l-1-1v-32a1 1 0 011-1 10 10 0 011 0zM4 2h31l1 1v31c0 2 0 2-2 2H5l-1-2V3 2zM36 114l-32 1V82c0-1 0-2 2-2h28c2 0 2 1 2 2v31a2 2 0 010 1zM36 75H4a2 2 0 010-2V42a1 1 0 011-1h29a3 3 0 012 0zM20 120h15a1 1 0 011 1v32a1 1 0 01-1 1H5a1 1 0 01-1-1v-32a1 1 0 011-1h1zM146 137v16a1 1 0 01-1 1h-30l-1-1v-32l1-1a5 5 0 011 0h28l2 1v1zM41 58V43c0-2 0-2 2-2h28a6 6 0 011 0 1 1 0 011 1v30c0 3 0 3-3 3H42l-1-1V58z" class="d"/></g><g class="c"><path d="M111 57V42c0-2 0-2 2-2h29l1 2v31l-1 2h-29c-2 0-2 0-2-2V57zM180 57v15c0 3 0 3-2 3h-28c-2 0-2-1-2-3V42c0-2 0-2 2-2h28c2 0 2 0 2 2v15zM164 1h14c2 0 2 0 2 2v30c0 2 0 2-2 2h-28a9 9 0 01-1 0 1 1 0 01-1-1V3l1-2h1zM127 35h-14l-2-1V2a1 1 0 011-1h30l1 1v32a1 1 0 010 1 12 12 0 01-2 0zM216 153h-31a2 2 0 010-1v-31l1-2h29c2 0 2 0 2 2v31a9 9 0 01-1 1zM185 41l31-1v33l-1 1h-29l-1-1V42a2 2 0 010-1zM185 80h31a2 2 0 010 2v31a1 1 0 010 1h-29a3 3 0 01-2 0zM200 35h-14a1 1 0 01-1-1V2a1 1 0 011-1h29a1 1 0 011 1v32a1 1 0 010 1h-2zM75 18V2a1 1 0 010-1h29a8 8 0 011 0c1 0 2 0 2 2v31l-2 1a5 5 0 01-1 0H76l-1-1v-1zM180 97v15c0 2 0 2-2 2h-28a5 5 0 01-1 0 1 1 0 01-1-1V83c0-3 0-3 3-3h27l2 1v16z" class="d"/></g><g class="c"><path d="M366 98v15l-1 2h-29c-2 0-2 0-2-2V82c0-1 0-2 2-2h29l1 2v16zM298 98V82l1-2h29c2 0 2 1 2 3v30c0 2-1 2-2 2h-29l-1-2V98zM314 154h-15c-1 0-2 0-2-2v-30c0-2 1-2 3-2h27a9 9 0 012 0 1 1 0 011 1v31c0 2-1 2-2 2h-14zM350 120h15l1 1v32a1 1 0 01-1 1h-30l-1-1v-32a1 1 0 011-1 10 10 0 011 0zM261 2h31l1 1v31c0 2 0 2-2 2h-29l-1-2V3 2zM293 114l-32 1V82c0-1 0-2 2-2h28c2 0 2 1 2 2v31a2 2 0 010 1zM293 75h-32a2 2 0 010-2V42a1 1 0 011-1h29a3 3 0 012 0zM277 120h15a1 1 0 011 1v32a1 1 0 01-1 1h-30a1 1 0 01-1-1v-32a1 1 0 011-1h1zM403 137v16a1 1 0 01-1 1h-30l-1-1v-32l1-1a5 5 0 011 0h28l2 1v1zM298 58V43c0-2 0-2 2-2h28a6 6 0 011 0 1 1 0 011 1v30c0 3 0 3-3 3h-28l-1-1V58z" class="d"/></g><g class="c"><path d="M368 57V42c0-2 0-2 2-2h29l1 2v31l-1 2h-29c-2 0-2 0-2-2V57zM437 57v15c0 3 0 3-2 3h-28c-2 0-2-1-2-3V42c0-2 0-2 2-2h28c2 0 2 0 2 2v15zM421 1h14c2 0 2 0 2 2v30c0 2 0 2-2 2h-28a9 9 0 01-1 0 1 1 0 01-1-1V3l1-2h1zM384 35h-14l-2-1V2a1 1 0 011-1h30l1 1v32a1 1 0 010 1 12 12 0 01-2 0zM473 153h-31a2 2 0 010-1v-31l1-2h29c1 0 2 0 2 2v31a9 9 0 01-1 1zM442 41l31-1v33l-1 1h-29l-1-1V42a2 2 0 010-1zM442 80h31a2 2 0 010 2v31a1 1 0 010 1h-29a3 3 0 01-2 0zM457 35h-14a1 1 0 01-1-1V2a1 1 0 010-1 1 1 0 011 0h29a1 1 0 011 1v32a1 1 0 010 1h-2zM332 18V2a1 1 0 010-1h29a8 8 0 011 0c1 0 2 0 2 2v31l-2 1a5 5 0 01-1 0h-28l-1-1v-1zM437 97v15c0 2 0 2-2 2h-28a5 5 0 01-1 0 1 1 0 01-1-1V83c0-3 0-3 3-3h27l2 1v16z" class="d"/></g><g class="c"><path d="M623 98v15l-1 2h-29c-2 0-2 0-2-2V82c0-1 0-2 2-2h29l1 2v16zM555 98V82l1-2h29c2 0 2 1 2 3v30c0 2-1 2-2 2h-29l-1-2V98zM571 154h-15c-1 0-2 0-2-2v-30c0-2 1-2 3-2h27a9 9 0 012 0 1 1 0 011 1v31c0 2-1 2-2 2h-14zM607 120h15l1 1v32a1 1 0 01-1 1h-30l-1-1v-32a1 1 0 011-1 10 10 0 011 0zM518 2h31l1 1v31c0 2 0 2-2 2h-29l-1-2V3 2zM550 114l-32 1V82c0-1 0-2 2-2h28c2 0 2 1 2 2v31a2 2 0 010 1zM550 75h-32a2 2 0 010-2V42a1 1 0 011-1h29a3 3 0 012 0zM534 120h15a1 1 0 011 1v32a1 1 0 01-1 1h-30a1 1 0 01-1-1v-32a1 1 0 011-1h1zM660 137v16a1 1 0 01-1 1h-30l-1-1v-32l1-1a5 5 0 011 0h28l2 1v1zM555 58V43c0-2 0-2 2-2h28a6 6 0 011 0 1 1 0 011 1v30c0 3 0 3-3 3h-28l-1-1V58z" class="d"/></g><g class="c"><path d="M625 57V42c0-2 0-2 2-2h29l1 2v31l-1 2h-29c-2 0-2 0-2-2V57zM694 57v15c0 3 0 3-2 3h-28c-2 0-2-1-2-3V42c0-2 0-2 2-2h28c2 0 2 0 2 2v15zM678 1h14c2 0 2 0 2 2v30c0 2 0 2-2 2h-28a9 9 0 01-1 0 1 1 0 01-1-1V3l1-2h1zM641 35h-14l-2-1V2a1 1 0 011-1h30l1 1v32a1 1 0 010 1 12 12 0 01-2 0zM730 153h-31a2 2 0 010-1v-31l1-2h29c2 0 2 0 2 2v31a9 9 0 01-1 1zM699 41l31-1v33l-1 1h-29l-1-1V42a2 2 0 010-1zM699 80h31a2 2 0 010 2v31a1 1 0 010 1h-29a3 3 0 01-2 0zM714 35h-14a1 1 0 01-1-1V2a1 1 0 010-1 1 1 0 011 0h29a1 1 0 011 1v32a1 1 0 010 1h-2zM589 18V2a1 1 0 010-1h29a8 8 0 011 0c1 0 2 0 2 2v31l-2 1a5 5 0 01-1 0h-28l-1-1v-1zM694 97v15c0 2 0 2-2 2h-28a5 5 0 01-1 0 1 1 0 01-1-1V83c0-3 0-3 3-3h27l2 1v16z" class="d"/></g><g class="c"><path d="M880 98v15l-1 2h-29c-2 0-2 0-2-2V82c0-1 0-2 2-2h29l1 2v16zM812 98V82l1-2h29c2 0 2 1 2 3v30c0 2-1 2-2 2h-29l-1-2V98zM828 154h-15c-1 0-2 0-2-2v-30c0-2 1-2 3-2h27a9 9 0 012 0 1 1 0 011 1v31c0 2-1 2-2 2h-14zM864 120h15l1 1v32a1 1 0 01-1 1h-30l-1-1v-32a1 1 0 011-1 10 10 0 011 0zM775 2h31l1 1v31c0 2 0 2-2 2h-29l-1-2V3 2zM807 114l-32 1V82c0-1 0-2 2-2h28c2 0 2 1 2 2v31a2 2 0 010 1zM807 75h-32a2 2 0 010-2V42a1 1 0 011-1h29a3 3 0 012 0zM791 120h15a1 1 0 011 1v32a1 1 0 01-1 1h-30a1 1 0 01-1-1v-32a1 1 0 011-1h1zM917 137v16a1 1 0 01-1 1h-30l-1-1v-32l1-1a5 5 0 011 0h28l2 1v1zM812 58V43c0-2 0-2 2-2h28a6 6 0 011 0 1 1 0 011 1v30c0 3 0 3-3 3h-28l-1-1V58z" class="d"/></g><g class="c"><path d="M882 57V42c0-2 0-2 2-2h29l1 2v31l-1 2h-29c-2 0-2 0-2-2V57zM951 57v15c0 3 0 3-2 3h-28c-2 0-2-1-2-3V42c0-2 0-2 2-2h28c2 0 2 0 2 2v15zM935 1h14c2 0 2 0 2 2v30c0 2 0 2-2 2h-28a9 9 0 01-1 0 1 1 0 01-1-1V3l1-2h1zM898 35h-14l-2-1V2a1 1 0 011-1h30l1 1v32a1 1 0 010 1 12 12 0 01-2 0zM987 153h-31a2 2 0 010-1v-31l1-2h29c2 0 2 0 2 2v31a9 9 0 01-1 1zM956 41l31-1v33l-1 1h-29l-1-1V42a2 2 0 010-1zM956 80h31a2 2 0 010 2v31a1 1 0 010 1h-29a3 3 0 01-2 0zM971 35h-14a1 1 0 01-1-1V2a1 1 0 010-1 1 1 0 011 0h29a1 1 0 011 1v32a1 1 0 010 1h-2zM846 18V2a1 1 0 010-1h29a8 8 0 011 0c1 0 2 0 2 2v31l-2 1a5 5 0 01-1 0h-28l-1-1v-1zM951 97v15c0 2 0 2-2 2h-28a5 5 0 01-1 0 1 1 0 01-1-1V83c0-3 0-3 3-3h27l2 1v16z" class="d"/></g><g class="c"><path d="M1137 98v15l-1 2h-29c-2 0-2 0-2-2V82c0-1 0-2 2-2h29l1 2v16zM1069 98V82l1-2h29c2 0 2 1 2 3v30c0 2-1 2-2 2h-29l-1-2V98zM1085 154h-15c-1 0-2 0-2-2v-30c0-2 1-2 3-2h27a9 9 0 012 0 1 1 0 011 1v31c0 2-1 2-2 2h-14zM1121 120h15l1 1v32a1 1 0 01-1 1h-30l-1-1v-32a1 1 0 011-1 10 10 0 011 0zM1032 2h31l1 1v31c0 2 0 2-2 2h-29l-1-2V3 2zM1064 114l-32 1V82c0-1 0-2 2-2h28c2 0 2 1 2 2v31a2 2 0 010 1zM1064 75h-32a2 2 0 010-2V42a1 1 0 011-1h29a3 3 0 012 0zM1048 120h15a1 1 0 011 1v32a1 1 0 01-1 1h-30a1 1 0 01-1-1v-32a1 1 0 011-1h1zM1174 137v16a1 1 0 01-1 1h-30l-1-1v-32l1-1a5 5 0 011 0h28l2 1v1zM1069 58V43c0-2 0-2 2-2h28a6 6 0 011 0 1 1 0 011 1v30c0 3 0 3-3 3h-28l-1-1V58z" class="d"/></g><g class="c"><path d="M1139 57V42c0-2 0-2 2-2h29l1 2v31l-1 2h-29c-2 0-2 0-2-2V57zM1208 57v15c0 3 0 3-2 3h-28c-2 0-2-1-2-3V42c0-2 0-2 2-2h28c2 0 2 0 2 2v15zM1192 1h14c2 0 2 0 2 2v30c0 2 0 2-2 2h-28a9 9 0 01-1 0 1 1 0 01-1-1V3l1-2h1zM1155 35h-14l-2-1V2a1 1 0 011-1h30l1 1v32a1 1 0 010 1 12 12 0 01-2 0zM1244 153h-31a2 2 0 010-1v-31l1-2h29c2 0 2 0 2 2v31a9 9 0 01-1 1zM1213 41l31-1v33l-1 1h-29l-1-1V42a2 2 0 010-1zM1213 80h31a2 2 0 010 2v31a1 1 0 010 1h-29a3 3 0 01-2 0zM1228 35h-14a1 1 0 01-1-1V2a1 1 0 010-1 1 1 0 011 0h29a1 1 0 011 1v32a1 1 0 010 1h-2zM1103 18V2a1 1 0 010-1h29a8 8 0 011 0c1 0 2 0 2 2v31l-2 1a5 5 0 01-1 0h-28l-1-1v-1zM1208 97v15c0 2 0 2-2 2h-28a5 5 0 01-1 0 1 1 0 01-1-1V83c0-3 0-3 3-3h27l2 1v16z" class="d"/></g></g><g class="b"><g class="c"><path d="M108 282v15l-1 2H78c-2 0-2 0-2-2v-31c0-1 0-2 2-2h29l1 2v16zM40 282v-16l1-2h29c2 0 2 1 2 3v30c0 2-1 2-2 2H41l-1-2v-15zM56 338H41c-1 0-2 0-2-2v-30c0-2 1-2 3-2h27a9 9 0 012 0 1 1 0 011 1v31c0 2-1 2-2 2H56zM92 304h15l1 1v32a1 1 0 01-1 1H77l-1-1v-32a1 1 0 011-1 10 10 0 011 0zM3 186h31l1 1v31c0 2 0 2-2 2H4l-1-2v-31-1zM35 298l-32 1v-33c0-1 0-2 2-2h28c2 0 2 1 2 2v31a2 2 0 010 1zM35 259H3a2 2 0 010-2v-31a1 1 0 011-1h29a3 3 0 012 0zM19 304h15a1 1 0 011 1v32a1 1 0 01-1 1H4a1 1 0 01-1-1v-32a1 1 0 011-1h1zM145 321v16a1 1 0 01-1 1h-30l-1-1v-32l1-1a5 5 0 011 0h28l2 1v1zM40 242v-15c0-2 0-2 2-2h28a6 6 0 011 0 1 1 0 011 1v30c0 3 0 3-3 3H41l-1-1v-16z" class="d"/></g><g class="c"><path d="M110 241v-15c0-2 0-2 2-2h29l1 2v31l-1 2h-29c-2 0-2 0-2-2v-16zM179 241v16c0 2 0 2-2 2h-28c-2 0-2-1-2-3v-30c0-2 0-2 2-2h28c2 0 2 0 2 2v15zM163 185h14c2 0 2 0 2 2v30c0 2 0 2-2 2h-28a9 9 0 01-1 0 1 1 0 01-1-1v-31l1-2h1zM126 219h-14l-2-1v-32a1 1 0 011-1h30l1 1v32a1 1 0 010 1 12 12 0 01-2 0zM215 337h-31a2 2 0 010-1v-31l1-2h29c2 0 2 0 2 2v31a9 9 0 01-1 1zM184 225l31-1v33l-1 1-29 1-1-2v-31a2 2 0 010-1zM184 264h31a2 2 0 010 2v31a1 1 0 010 1h-29a3 3 0 01-2 0zM199 219h-14a1 1 0 01-1-1v-32a1 1 0 011-1h29a1 1 0 011 1v32a1 1 0 010 1h-2zM74 202v-16a1 1 0 010-1h29a8 8 0 011 0l2 1v32l-2 1a5 5 0 01-1 0H75l-1-1v-1zM179 281v15c0 2 0 2-2 2h-28a5 5 0 01-1 0 1 1 0 01-1-1v-30c0-3 0-3 3-3h27l2 1v16z" class="d"/></g><g class="c"><path d="M365 282v15l-1 2h-29c-2 0-2 0-2-2v-31c0-1 0-2 2-2h29l1 2v16zM297 282v-16l1-2h29c2 0 2 1 2 3v30c0 2-1 2-2 2h-29l-1-2v-15zM313 338h-15c-1 0-2 0-2-2v-30c0-2 1-2 3-2h27a9 9 0 012 0 1 1 0 011 1v31c0 2-1 2-2 2h-14zM349 304h15l1 1v32a1 1 0 01-1 1h-30l-1-1v-32a1 1 0 011-1 10 10 0 011 0zM260 186h31l1 1v31c0 2 0 2-2 2h-29l-1-2v-31-1zM292 298l-32 1v-33c0-1 0-2 2-2h28c2 0 2 1 2 2v31a2 2 0 010 1zM292 259h-32a2 2 0 010-2v-31a1 1 0 011-1h29a3 3 0 012 0zM276 304h15a1 1 0 011 1v32a1 1 0 01-1 1h-30a1 1 0 01-1-1v-32a1 1 0 011-1h1zM402 321v16a1 1 0 01-1 1h-30l-1-1v-32l1-1a5 5 0 011 0h28l2 1v1zM297 242v-15c0-2 0-2 2-2h28a6 6 0 011 0 1 1 0 011 1v30c0 3 0 3-3 3h-28l-1-1v-16z" class="d"/></g><g class="c"><path d="M367 241v-15c0-2 0-2 2-2h29l1 2v31l-1 2h-29c-2 0-2 0-2-2v-16zM436 241v16c0 2 0 2-2 2h-28c-2 0-2-1-2-3v-30c0-2 0-2 2-2h28c2 0 2 0 2 2v15zM420 185h14c2 0 2 0 2 2v30c0 2 0 2-2 2h-28a9 9 0 01-1 0 1 1 0 01-1-1v-31l1-2h1zM383 219h-14l-2-1v-32a1 1 0 011-1h30l1 1v32a1 1 0 010 1 12 12 0 01-2 0zM472 337h-31a2 2 0 010-1v-31l1-2h29c1 0 2 0 2 2v31a9 9 0 01-1 1zM441 225l31-1v33l-1 1-29 1-1-2v-31a2 2 0 010-1zM441 264h31a2 2 0 010 2v31a1 1 0 010 1h-29a3 3 0 01-2 0zM456 219h-14a1 1 0 01-1-1v-32a1 1 0 010-1 1 1 0 011 0h29a1 1 0 011 1v32a1 1 0 010 1h-2zM331 202v-16a1 1 0 010-1h29a8 8 0 011 0l2 1v32l-2 1a5 5 0 01-1 0h-28l-1-1v-1zM436 281v15c0 2 0 2-2 2h-28a5 5 0 01-1 0 1 1 0 01-1-1v-30c0-3 0-3 3-3h27l2 1v16z" class="d"/></g><g class="c"><path d="M622 282v15l-1 2h-29c-2 0-2 0-2-2v-31c0-1 0-2 2-2h29l1 2v16zM554 282v-16l1-2h29c2 0 2 1 2 3v30c0 2-1 2-2 2h-29l-1-2v-15zM570 338h-15c-1 0-2 0-2-2v-30c0-2 1-2 3-2h27a9 9 0 012 0 1 1 0 011 1v31c0 2-1 2-2 2h-14zM606 304h15l1 1v32a1 1 0 01-1 1h-30l-1-1v-32a1 1 0 011-1 10 10 0 011 0zM517 186h31l1 1v31c0 2 0 2-2 2h-29l-1-2v-31-1zM549 298l-32 1v-33c0-1 0-2 2-2h28c2 0 2 1 2 2v31a2 2 0 010 1zM549 259h-32a2 2 0 010-2v-31a1 1 0 011-1h29a3 3 0 012 0zM533 304h15a1 1 0 011 1v32a1 1 0 01-1 1h-30a1 1 0 01-1-1v-32a1 1 0 011-1h1zM659 321v16a1 1 0 01-1 1h-30l-1-1v-32l1-1a5 5 0 011 0h28l2 1v1zM554 242v-15c0-2 0-2 2-2h28a6 6 0 011 0 1 1 0 011 1v30c0 3 0 3-3 3h-28l-1-1v-16z" class="d"/></g><g class="c"><path d="M624 241v-15c0-2 0-2 2-2h29l1 2v31l-1 2h-29c-2 0-2 0-2-2v-16zM693 241v16c0 2 0 2-2 2h-28c-2 0-2-1-2-3v-30c0-2 0-2 2-2h28c2 0 2 0 2 2v15zM677 185h14c2 0 2 0 2 2v30c0 2 0 2-2 2h-28a9 9 0 01-1 0 1 1 0 01-1-1v-31l1-2h1zM640 219h-14l-2-1v-32a1 1 0 011-1h30l1 1v32a1 1 0 010 1 12 12 0 01-2 0zM729 337h-31a2 2 0 010-1v-31l1-2h29c2 0 2 0 2 2v31a9 9 0 01-1 1zM698 225l31-1v33l-1 1-29 1-1-2v-31a2 2 0 010-1zM698 264h31a2 2 0 010 2v31a1 1 0 010 1h-29a3 3 0 01-2 0zM713 219h-14a1 1 0 01-1-1v-32a1 1 0 010-1 1 1 0 011 0h29a1 1 0 011 1v32a1 1 0 010 1h-2zM588 202v-16a1 1 0 010-1h29a8 8 0 011 0l2 1v32l-2 1a5 5 0 01-1 0h-28l-1-1v-1zM693 281v15c0 2 0 2-2 2h-28a5 5 0 01-1 0 1 1 0 01-1-1v-30c0-3 0-3 3-3h27l2 1v16z" class="d"/></g><g class="c"><path d="M879 282v15l-1 2h-29c-2 0-2 0-2-2v-31c0-1 0-2 2-2h29l1 2v16zM811 282v-16l1-2h29c2 0 2 1 2 3v30c0 2-1 2-2 2h-29l-1-2v-15zM827 338h-15c-1 0-2 0-2-2v-30c0-2 1-2 3-2h27a9 9 0 012 0 1 1 0 011 1v31c0 2-1 2-2 2h-14zM863 304h15l1 1v32a1 1 0 01-1 1h-30l-1-1v-32a1 1 0 011-1 10 10 0 011 0zM774 186h31l1 1v31c0 2 0 2-2 2h-29l-1-2v-31-1zM806 298l-32 1v-33c0-1 0-2 2-2h28c2 0 2 1 2 2v31a2 2 0 010 1zM806 259h-32a2 2 0 010-2v-31a1 1 0 011-1h29a3 3 0 012 0zM790 304h15a1 1 0 011 1v32a1 1 0 01-1 1h-30a1 1 0 01-1-1v-32a1 1 0 011-1h1zM916 321v16a1 1 0 01-1 1h-30l-1-1v-32l1-1a5 5 0 011 0h28l2 1v1zM811 242v-15c0-2 0-2 2-2h28a6 6 0 011 0 1 1 0 011 1v30c0 3 0 3-3 3h-28l-1-1v-16z" class="d"/></g><g class="c"><path d="M881 241v-15c0-2 0-2 2-2h29l1 2v31l-1 2h-29c-2 0-2 0-2-2v-16zM950 241v16c0 2 0 2-2 2h-28c-2 0-2-1-2-3v-30c0-2 0-2 2-2h28c2 0 2 0 2 2v15zM934 185h14c2 0 2 0 2 2v30c0 2 0 2-2 2h-28a9 9 0 01-1 0 1 1 0 01-1-1v-31l1-2h1zM897 219h-14l-2-1v-32a1 1 0 011-1h30l1 1v32a1 1 0 010 1 12 12 0 01-2 0zM986 337h-31a2 2 0 010-1v-31l1-2h29c2 0 2 0 2 2v31a9 9 0 01-1 1zM955 225l31-1v33l-1 1-29 1-1-2v-31a2 2 0 010-1zM955 264h31a2 2 0 010 2v31a1 1 0 010 1h-29a3 3 0 01-2 0zM970 219h-14a1 1 0 01-1-1v-32a1 1 0 010-1 1 1 0 011 0h29a1 1 0 011 1v32a1 1 0 010 1h-2zM845 202v-16a1 1 0 010-1h29a8 8 0 011 0l2 1v32l-2 1a5 5 0 01-1 0h-28l-1-1v-1zM950 281v15c0 2 0 2-2 2h-28a5 5 0 01-1 0 1 1 0 01-1-1v-30c0-3 0-3 3-3h27l2 1v16z" class="d"/></g><g class="c"><path d="M1136 282v15l-1 2h-29c-2 0-2 0-2-2v-31c0-1 0-2 2-2h29l1 2v16zM1068 282v-16l1-2h29c2 0 2 1 2 3v30c0 2-1 2-2 2h-29l-1-2v-15zM1084 338h-15c-1 0-2 0-2-2v-30c0-2 1-2 3-2h27a9 9 0 012 0 1 1 0 011 1v31c0 2-1 2-2 2h-14zM1120 304h15l1 1v32a1 1 0 01-1 1h-30l-1-1v-32a1 1 0 011-1 10 10 0 011 0zM1031 186h31l1 1v31c0 2 0 2-2 2h-29l-1-2v-31-1zM1063 298l-32 1v-33c0-1 0-2 2-2h28c2 0 2 1 2 2v31a2 2 0 010 1zM1063 259h-32a2 2 0 010-2v-31a1 1 0 011-1h29a3 3 0 012 0zM1047 304h15a1 1 0 011 1v32a1 1 0 01-1 1h-30a1 1 0 01-1-1v-32a1 1 0 011-1h1zM1173 321v16a1 1 0 01-1 1h-30l-1-1v-32l1-1a5 5 0 011 0h28l2 1v1zM1068 242v-15c0-2 0-2 2-2h28a6 6 0 011 0 1 1 0 011 1v30c0 3 0 3-3 3h-28l-1-1v-16z" class="d"/></g><g class="c"><path d="M1138 241v-15c0-2 0-2 2-2h29l1 2v31l-1 2h-29c-2 0-2 0-2-2v-16zM1207 241v16c0 2 0 2-2 2h-28c-2 0-2-1-2-3v-30c0-2 0-2 2-2h28c2 0 2 0 2 2v15zM1191 185h14c2 0 2 0 2 2v30c0 2 0 2-2 2h-28a9 9 0 01-1 0 1 1 0 01-1-1v-31l1-2h1zM1154 219h-14l-2-1v-32a1 1 0 011-1h30l1 1v32a1 1 0 010 1 12 12 0 01-2 0zM1243 337h-31a2 2 0 010-1v-31l1-2h29c2 0 2 0 2 2v31a9 9 0 01-1 1zM1212 225l31-1v33l-1 1-29 1-1-2v-31a2 2 0 010-1zM1212 264h31a2 2 0 010 2v31a1 1 0 010 1h-29a3 3 0 01-2 0zM1227 219h-14a1 1 0 01-1-1v-32a1 1 0 010-1 1 1 0 011 0h29a1 1 0 011 1v32a1 1 0 010 1h-2zM1102 202v-16a1 1 0 010-1h29a8 8 0 011 0l2 1v32l-2 1a5 5 0 01-1 0h-28l-1-1v-1zM1207 281v15c0 2 0 2-2 2h-28a5 5 0 01-1 0 1 1 0 01-1-1v-30c0-3 0-3 3-3h27l2 1v16z" class="d"/></g></g><g class="b"><g class="c"><path d="M107 466v15l-1 2H77c-2 0-2 0-2-2v-31c0-1 0-2 2-2h29l1 2v16zM39 466v-16l1-2h29c2 0 2 1 2 3v30c0 2-1 2-2 2H40l-1-2v-15zM55 522H40c-1 0-2 0-2-2v-30c0-2 1-2 3-2h27a9 9 0 012 0 1 1 0 011 1v31c0 2-1 2-2 2H55zM91 488h15l1 1v32a1 1 0 01-1 1H76l-1-1v-32a1 1 0 011-1 10 10 0 011 0zM2 370h31l1 1v31c0 2 0 2-2 2H3l-1-2v-31-1zM34 482l-32 1v-33c0-1 0-2 2-2h28c2 0 2 1 2 2v31a2 2 0 010 1zM34 443H2a2 2 0 010-2v-31a1 1 0 011-1h29a3 3 0 012 0zM18 488h15a1 1 0 011 1v32a1 1 0 01-1 1H3a1 1 0 01-1-1v-32a1 1 0 011-1h1zM144 505v16a1 1 0 01-1 1h-30l-1-1v-32l1-1a5 5 0 011 0h28l2 1v1zM39 426v-15c0-2 0-2 2-2h28a6 6 0 011 0 1 1 0 011 1v30c0 3 0 3-3 3H40l-1-1v-16z" class="d"/></g><g class="c"><path d="M109 425v-15c0-2 0-2 2-2h29l1 2v31l-1 2h-29c-2 0-2 0-2-2v-16zM178 425v16c0 2 0 2-2 2h-28c-2 0-2-1-2-3v-30c0-2 0-2 2-2h28c2 0 2 0 2 2v15zM162 369h14c2 0 2 0 2 2v30c0 2 0 2-2 2h-28a9 9 0 01-1 0 1 1 0 01-1-1v-31l1-2h1zM125 403h-14l-2-1v-32a1 1 0 011-1h30l1 1v32a1 1 0 010 1 12 12 0 01-2 0zM214 521h-31a2 2 0 010-1v-31l1-2h29l2 1v32a9 9 0 01-1 1zM183 409l31-1v33l-1 1-29 1-1-2v-31a2 2 0 010-1zM183 448h31a2 2 0 010 2v31a1 1 0 010 1h-29a3 3 0 01-2 0zM198 403h-14a1 1 0 01-1-1v-32a1 1 0 011-1h29a1 1 0 011 1v32a1 1 0 010 1h-2zM73 386v-16a1 1 0 010-1h29a8 8 0 011 0l2 1v32l-2 1a5 5 0 01-1 0H74l-1-1v-1zM178 465v15c0 2 0 2-2 2h-28a5 5 0 01-1 0 1 1 0 01-1-1v-30c0-3 0-3 3-3h27l2 1v16z" class="d"/></g><g class="c"><path d="M364 466v15l-1 2h-29c-2 0-2 0-2-2v-31c0-1 0-2 2-2h29l1 2v16zM296 466v-16l1-2h29c2 0 2 1 2 3v30c0 2-1 2-2 2h-29l-1-2v-15zM312 522h-15c-1 0-2 0-2-2v-30c0-2 1-2 3-2h27a9 9 0 012 0 1 1 0 011 1v31c0 2-1 2-2 2h-14zM348 488h15l1 1v32a1 1 0 01-1 1h-30l-1-1v-32a1 1 0 011-1 10 10 0 011 0zM259 370h31l1 1v31c0 2 0 2-2 2h-29l-1-2v-31-1zM291 482l-32 1v-33c0-1 0-2 2-2h28c2 0 2 1 2 2v31a2 2 0 010 1zM291 443h-32a2 2 0 010-2v-31a1 1 0 011-1h29a3 3 0 012 0zM275 488h15a1 1 0 011 1v32a1 1 0 01-1 1h-30a1 1 0 01-1-1v-32a1 1 0 011-1h1zM401 505v16a1 1 0 01-1 1h-30l-1-1v-32l1-1a5 5 0 011 0h28l2 1v1zM296 426v-15c0-2 0-2 2-2h28a6 6 0 011 0 1 1 0 011 1v30c0 3 0 3-3 3h-28l-1-1v-16z" class="d"/></g><g class="c"><path d="M366 425v-15c0-2 0-2 2-2h29l1 2v31l-1 2h-29c-2 0-2 0-2-2v-16zM435 425v16c0 2 0 2-2 2h-28c-2 0-2-1-2-3v-30c0-2 0-2 2-2h28c2 0 2 0 2 2v15zM419 369h14c2 0 2 0 2 2v30c0 2 0 2-2 2h-28a9 9 0 01-1 0 1 1 0 01-1-1v-31l1-2h1zM382 403h-14l-2-1v-32a1 1 0 011-1h30l1 1v32a1 1 0 010 1 12 12 0 01-2 0zM471 521h-31a2 2 0 010-1v-31l1-2h29c1 0 2 0 2 2v31a9 9 0 01-1 1zM440 409l31-1v33l-1 1-29 1-1-2v-31a2 2 0 010-1zM440 448h31a2 2 0 010 2v31a1 1 0 010 1h-29a3 3 0 01-2 0zM455 403h-14a1 1 0 01-1-1v-32a1 1 0 010-1h30a1 1 0 011 1v32a1 1 0 010 1h-2zM330 386v-16a1 1 0 010-1h29a8 8 0 011 0l2 1v32l-2 1a5 5 0 01-1 0h-28l-1-1v-1zM435 465v15c0 2 0 2-2 2h-28a5 5 0 01-1 0 1 1 0 01-1-1v-30c0-3 0-3 3-3h27l2 1v16z" class="d"/></g><g class="c"><path d="M621 466v15l-1 2h-29c-2 0-2 0-2-2v-31c0-1 0-2 2-2h29l1 2v16zM553 466v-16l1-2h29c2 0 2 1 2 3v30c0 2-1 2-2 2h-29l-1-2v-15zM569 522h-15c-1 0-2 0-2-2v-30c0-2 1-2 3-2h27a9 9 0 012 0 1 1 0 011 1v31c0 2-1 2-2 2h-14zM605 488h15l1 1v32a1 1 0 01-1 1h-30l-1-1v-32a1 1 0 011-1 10 10 0 011 0zM516 370h31l1 1v31c0 2 0 2-2 2h-29l-1-2v-31-1zM548 482l-32 1v-33c0-1 0-2 2-2h28c2 0 2 1 2 2v31a2 2 0 010 1zM548 443h-32a2 2 0 010-2v-31a1 1 0 011-1h29a3 3 0 012 0zM532 488h15a1 1 0 011 1v32a1 1 0 01-1 1h-30a1 1 0 01-1-1v-32a1 1 0 011-1h1zM658 505v16a1 1 0 01-1 1h-30l-1-1v-32l1-1a5 5 0 011 0h28l2 1v1zM553 426v-15c0-2 0-2 2-2h28a6 6 0 011 0 1 1 0 011 1v30c0 3 0 3-3 3h-28l-1-1v-16z" class="d"/></g><g class="c"><path d="M623 425v-15c0-2 0-2 2-2h29l1 2v31l-1 2h-29c-2 0-2 0-2-2v-16zM692 425v16c0 2 0 2-2 2h-28c-2 0-2-1-2-3v-30c0-2 0-2 2-2h28c2 0 2 0 2 2v15zM676 369h14c2 0 2 0 2 2v30c0 2 0 2-2 2h-28a9 9 0 01-1 0 1 1 0 01-1-1v-31l1-2h1zM639 403h-14l-2-1v-32a1 1 0 011-1h30l1 1v32a1 1 0 010 1 12 12 0 01-2 0zM728 521h-31a2 2 0 010-1v-31l1-2h29l2 1v32a9 9 0 01-1 1zM697 409l31-1v33l-1 1-29 1-1-2v-31a2 2 0 010-1zM697 448h31a2 2 0 010 2v31a1 1 0 010 1h-29a3 3 0 01-2 0zM712 403h-14a1 1 0 01-1-1v-32a1 1 0 010-1h30a1 1 0 011 1v32a1 1 0 010 1h-2zM587 386v-16a1 1 0 010-1h29a8 8 0 011 0l2 1v32l-2 1a5 5 0 01-1 0h-28l-1-1v-1zM692 465v15c0 2 0 2-2 2h-28a5 5 0 01-1 0 1 1 0 01-1-1v-30c0-3 0-3 3-3h27l2 1v16z" class="d"/></g><g class="c"><path d="M878 466v15l-1 2h-29c-2 0-2 0-2-2v-31c0-1 0-2 2-2h29l1 2v16zM810 466v-16l1-2h29c2 0 2 1 2 3v30c0 2-1 2-2 2h-29l-1-2v-15zM826 522h-15c-1 0-2 0-2-2v-30c0-2 1-2 3-2h27a9 9 0 012 0 1 1 0 011 1v31c0 2-1 2-2 2h-14zM862 488h15l1 1v32a1 1 0 01-1 1h-30l-1-1v-32a1 1 0 011-1 10 10 0 011 0zM773 370h31l1 1v31c0 2 0 2-2 2h-29l-1-2v-31-1zM805 482l-32 1v-33c0-1 0-2 2-2h28c2 0 2 1 2 2v31a2 2 0 010 1zM805 443h-32a2 2 0 010-2v-31a1 1 0 011-1h29a3 3 0 012 0zM789 488h15a1 1 0 011 1v32a1 1 0 01-1 1h-30a1 1 0 01-1-1v-32a1 1 0 011-1h1zM915 505v16a1 1 0 01-1 1h-30l-1-1v-32l1-1a5 5 0 011 0h28l2 1v1zM810 426v-15c0-2 0-2 2-2h28a6 6 0 011 0 1 1 0 011 1v30c0 3 0 3-3 3h-28l-1-1v-16z" class="d"/></g><g class="c"><path d="M880 425v-15c0-2 0-2 2-2h29l1 2v31l-1 2h-29c-2 0-2 0-2-2v-16zM949 425v16c0 2 0 2-2 2h-28c-2 0-2-1-2-3v-30c0-2 0-2 2-2h28c2 0 2 0 2 2v15zM933 369h14c2 0 2 0 2 2v30c0 2 0 2-2 2h-28a9 9 0 01-1 0 1 1 0 01-1-1v-31l1-2h1zM896 403h-14l-2-1v-32a1 1 0 011-1h30l1 1v32a1 1 0 010 1 12 12 0 01-2 0zM985 521h-31a2 2 0 010-1v-31l1-2h29l2 1v32a9 9 0 01-1 1zM954 409l31-1v33l-1 1-29 1-1-2v-31a2 2 0 010-1zM954 448h31a2 2 0 010 2v31a1 1 0 010 1h-29a3 3 0 01-2 0zM969 403h-14a1 1 0 01-1-1v-32a1 1 0 010-1h30a1 1 0 011 1v32a1 1 0 010 1h-2zM844 386v-16a1 1 0 010-1h29a8 8 0 011 0l2 1v32l-2 1a5 5 0 01-1 0h-28l-1-1v-1zM949 465v15c0 2 0 2-2 2h-28a5 5 0 01-1 0 1 1 0 01-1-1v-30c0-3 0-3 3-3h27l2 1v16z" class="d"/></g><g class="c"><path d="M1135 466v15l-1 2h-29c-2 0-2 0-2-2v-31c0-1 0-2 2-2h29l1 2v16zM1067 466v-16l1-2h29c2 0 2 1 2 3v30c0 2-1 2-2 2h-29l-1-2v-15zM1083 522h-15c-1 0-2 0-2-2v-30c0-2 1-2 3-2h27a9 9 0 012 0 1 1 0 011 1v31c0 2-1 2-2 2h-14zM1119 488h15l1 1v32a1 1 0 01-1 1h-30l-1-1v-32a1 1 0 011-1 10 10 0 011 0zM1030 370h31l1 1v31c0 2 0 2-2 2h-29l-1-2v-31-1zM1062 482l-32 1v-33c0-1 0-2 2-2h28c2 0 2 1 2 2v31a2 2 0 010 1zM1062 443h-32a2 2 0 010-2v-31a1 1 0 011-1h29a3 3 0 012 0zM1046 488h15a1 1 0 011 1v32a1 1 0 01-1 1h-30a1 1 0 01-1-1v-32a1 1 0 011-1h1zM1172 505v16a1 1 0 01-1 1h-30l-1-1v-32l1-1a5 5 0 011 0h28l2 1v1zM1067 426v-15c0-2 0-2 2-2h28a6 6 0 011 0 1 1 0 011 1v30c0 3 0 3-3 3h-28l-1-1v-16z" class="d"/></g><g class="c"><path d="M1137 425v-15c0-2 0-2 2-2h29l1 2v31l-1 2h-29c-2 0-2 0-2-2v-16zM1206 425v16c0 2 0 2-2 2h-28c-2 0-2-1-2-3v-30c0-2 0-2 2-2h28c2 0 2 0 2 2v15zM1190 369h14c2 0 2 0 2 2v30c0 2 0 2-2 2h-28a9 9 0 01-1 0 1 1 0 01-1-1v-31l1-2h1zM1153 403h-14l-2-1v-32a1 1 0 011-1h30l1 1v32a1 1 0 010 1 12 12 0 01-2 0zM1242 521h-31a2 2 0 010-1v-31l1-2h29l2 1v32a9 9 0 01-1 1zM1211 409l31-1v33l-1 1-29 1-1-2v-31a2 2 0 010-1zM1211 448h31a2 2 0 010 2v31a1 1 0 010 1h-29a3 3 0 01-2 0zM1226 403h-14a1 1 0 01-1-1v-32a1 1 0 010-1h30a1 1 0 011 1v32a1 1 0 010 1h-2zM1101 386v-16a1 1 0 010-1h29a8 8 0 011 0l2 1v32l-2 1a5 5 0 01-1 0h-28l-1-1v-1zM1206 465v15c0 2 0 2-2 2h-28a5 5 0 01-1 0 1 1 0 01-1-1v-30c0-3 0-3 3-3h27l2 1v16z" class="d"/></g></g><g class="b"><g class="c"><path d="M106 650v15l-1 2H76c-2 0-2 0-2-2v-31c0-1 0-2 2-2h29l1 2v16zM38 650v-16l1-2h29c2 0 2 1 2 3v30c0 2-1 2-2 2H39l-1-2v-15zM54 706H39c-1 0-2 0-2-2v-30c0-2 1-2 3-2h27a9 9 0 012 0 1 1 0 011 1v31c0 2-1 2-2 2H54zM90 672h15l1 1v32a1 1 0 01-1 1H75l-1-1v-32a1 1 0 011-1 10 10 0 011 0zM1 554h31l1 1v31c0 2 0 2-2 2H2l-1-2v-31-1zM33 666l-32 1v-33c0-1 0-2 2-2h28c2 0 2 1 2 2v31a2 2 0 010 1zM33 627H1a2 2 0 010-2v-31a1 1 0 011-1h29a3 3 0 012 0zM17 672h15a1 1 0 011 1v32a1 1 0 01-1 1H2a1 1 0 01-1-1v-32a1 1 0 011-1h1zM143 689v16a1 1 0 01-1 1h-30l-1-1v-32l1-1a5 5 0 011 0h28l2 1v1zM38 610v-15c0-2 0-2 2-2h28a6 6 0 011 0 1 1 0 011 1v30c0 3 0 3-3 3H39l-1-1v-16z" class="d"/></g><g class="c"><path d="M108 609v-15c0-2 0-2 2-2h29l1 2v31l-1 2h-29c-2 0-2 0-2-2v-16zM177 609v16c0 2 0 2-2 2h-28c-2 0-2-1-2-3v-30c0-2 0-2 2-2h28c2 0 2 0 2 2v15zM161 553h14c2 0 2 0 2 2v30c0 2 0 2-2 2h-28a9 9 0 01-1 0 1 1 0 01-1-1v-31l1-2h1zM124 587h-14l-2-1v-32a1 1 0 011-1h30l1 1v32a1 1 0 010 1 12 12 0 01-2 0zM213 705h-31a2 2 0 010-1v-31l1-2h29l2 1v32a9 9 0 01-1 1zM182 593l31-1v33l-1 1-29 1-1-2v-31a2 2 0 010-1zM182 632h31a2 2 0 010 2v31a1 1 0 010 1h-29a3 3 0 01-2 0zM197 587h-14a1 1 0 01-1-1v-32a1 1 0 011-1h29a1 1 0 011 1v32a1 1 0 010 1h-2zM72 570v-16a1 1 0 010-1h29a8 8 0 011 0c1 0 2 0 2 2v31l-2 1a5 5 0 01-1 0H73l-1-1v-1zM177 649v15c0 2 0 2-2 2h-28a5 5 0 01-1 0 1 1 0 01-1-1v-30c0-3 0-3 3-3h27l2 1v16z" class="d"/></g><g class="c"><path d="M363 650v15l-1 2h-29c-2 0-2 0-2-2v-31c0-1 0-2 2-2h29l1 2v16zM295 650v-16l1-2h29c2 0 2 1 2 3v30c0 2-1 2-2 2h-29l-1-2v-15zM311 706h-15c-1 0-2 0-2-2v-30c0-2 1-2 3-2h27a9 9 0 012 0 1 1 0 011 1v31c0 2-1 2-2 2h-14zM347 672h15l1 1v32a1 1 0 01-1 1h-30l-1-1v-32a1 1 0 011-1 10 10 0 011 0zM258 554h31l1 1v31c0 2 0 2-2 2h-29l-1-2v-31-1zM290 666l-32 1v-33c0-1 0-2 2-2h28c2 0 2 1 2 2v31a2 2 0 010 1zM290 627h-32a2 2 0 010-2v-31a1 1 0 011-1h29a3 3 0 012 0zM274 672h15a1 1 0 011 1v32a1 1 0 01-1 1h-30a1 1 0 01-1-1v-32a1 1 0 011-1h1zM400 689v16a1 1 0 01-1 1h-30l-1-1v-32l1-1a5 5 0 011 0h28l2 1v1zM295 610v-15c0-2 0-2 2-2h28a6 6 0 011 0 1 1 0 011 1v30c0 3 0 3-3 3h-28l-1-1v-16z" class="d"/></g><g class="c"><path d="M365 609v-15c0-2 0-2 2-2h29l1 2v31l-1 2h-29c-2 0-2 0-2-2v-16zM434 609v16c0 2 0 2-2 2h-28c-2 0-2-1-2-3v-30c0-2 0-2 2-2h28c2 0 2 0 2 2v15zM418 553h14c2 0 2 0 2 2v30c0 2 0 2-2 2h-28a9 9 0 01-1 0 1 1 0 01-1-1v-31l1-2h1zM381 587h-14l-2-1v-32a1 1 0 011-1h30l1 1v32a1 1 0 010 1 12 12 0 01-2 0zM470 705h-31a2 2 0 010-1v-31l1-2h29c1 0 2 0 2 2v31a9 9 0 01-1 1zM439 593l31-1v33l-1 1-29 1-1-2v-31a2 2 0 010-1zM439 632h31a2 2 0 010 2v31a1 1 0 010 1h-29a3 3 0 01-2 0zM454 587h-14a1 1 0 01-1-1v-32a1 1 0 010-1h30a1 1 0 011 1v32a1 1 0 010 1h-2zM329 570v-16a1 1 0 010-1h29a8 8 0 011 0c1 0 2 0 2 2v31l-2 1a5 5 0 01-1 0h-28l-1-1v-1zM434 649v15c0 2 0 2-2 2h-28a5 5 0 01-1 0 1 1 0 01-1-1v-30c0-3 0-3 3-3h27l2 1v16z" class="d"/></g><g class="c"><path d="M620 650v15l-1 2h-29c-2 0-2 0-2-2v-31c0-1 0-2 2-2h29l1 2v16zM552 650v-16l1-2h29c2 0 2 1 2 3v30c0 2-1 2-2 2h-29l-1-2v-15zM568 706h-15c-1 0-2 0-2-2v-30c0-2 1-2 3-2h27a9 9 0 012 0 1 1 0 011 1v31c0 2-1 2-2 2h-14zM604 672h15l1 1v32a1 1 0 01-1 1h-30l-1-1v-32a1 1 0 011-1 10 10 0 011 0zM515 554h31l1 1v31c0 2 0 2-2 2h-29l-1-2v-31-1zM547 666l-32 1v-33c0-1 0-2 2-2h28c2 0 2 1 2 2v31a2 2 0 010 1zM547 627h-32a2 2 0 010-2v-31a1 1 0 011-1h29a3 3 0 012 0zM531 672h15a1 1 0 011 1v32a1 1 0 01-1 1h-30a1 1 0 01-1-1v-32a1 1 0 011-1h1zM657 689v16a1 1 0 01-1 1h-30l-1-1v-32l1-1a5 5 0 011 0h28l2 1v1zM552 610v-15c0-2 0-2 2-2h28a6 6 0 011 0 1 1 0 011 1v30c0 3 0 3-3 3h-28l-1-1v-16z" class="d"/></g><g class="c"><path d="M622 609v-15c0-2 0-2 2-2h29l1 2v31l-1 2h-29c-2 0-2 0-2-2v-16zM691 609v16c0 2 0 2-2 2h-28c-2 0-2-1-2-3v-30c0-2 0-2 2-2h28c2 0 2 0 2 2v15zM675 553h14c2 0 2 0 2 2v30c0 2 0 2-2 2h-28a9 9 0 01-1 0 1 1 0 01-1-1v-31l1-2h1zM638 587h-14l-2-1v-32a1 1 0 011-1h30l1 1v32a1 1 0 010 1 12 12 0 01-2 0zM727 705h-31a2 2 0 010-1v-31l1-2h29l2 1v32a9 9 0 01-1 1zM696 593l31-1v33l-1 1-29 1-1-2v-31a2 2 0 010-1zM696 632h31a2 2 0 010 2v31a1 1 0 010 1h-29a3 3 0 01-2 0zM711 587h-14a1 1 0 01-1-1v-32a1 1 0 010-1h30a1 1 0 011 1v32a1 1 0 010 1h-2zM586 570v-16a1 1 0 010-1h29a8 8 0 011 0c1 0 2 0 2 2v31l-2 1a5 5 0 01-1 0h-28l-1-1v-1zM691 649v15c0 2 0 2-2 2h-28a5 5 0 01-1 0 1 1 0 01-1-1v-30c0-3 0-3 3-3h27l2 1v16z" class="d"/></g><g class="c"><path d="M877 650v15l-1 2h-29c-2 0-2 0-2-2v-31c0-1 0-2 2-2h29l1 2v16zM809 650v-16l1-2h29c2 0 2 1 2 3v30c0 2-1 2-2 2h-29l-1-2v-15zM825 706h-15c-1 0-2 0-2-2v-30c0-2 1-2 3-2h27a9 9 0 012 0 1 1 0 011 1v31c0 2-1 2-2 2h-14zM861 672h15l1 1v32a1 1 0 01-1 1h-30l-1-1v-32a1 1 0 011-1 10 10 0 011 0zM772 554h31l1 1v31c0 2 0 2-2 2h-29l-1-2v-31-1zM804 666l-32 1v-33c0-1 0-2 2-2h28c2 0 2 1 2 2v31a2 2 0 010 1zM804 627h-32a2 2 0 010-2v-31a1 1 0 011-1h29a3 3 0 012 0zM788 672h15a1 1 0 011 1v32a1 1 0 01-1 1h-30a1 1 0 01-1-1v-32a1 1 0 011-1h1zM914 689v16a1 1 0 01-1 1h-30l-1-1v-32l1-1a5 5 0 011 0h28l2 1v1zM809 610v-15c0-2 0-2 2-2h28a6 6 0 011 0 1 1 0 011 1v30c0 3 0 3-3 3h-28l-1-1v-16z" class="d"/></g><g class="c"><path d="M879 609v-15c0-2 0-2 2-2h29l1 2v31l-1 2h-29c-2 0-2 0-2-2v-16zM948 609v16c0 2 0 2-2 2h-28c-2 0-2-1-2-3v-30c0-2 0-2 2-2h28c2 0 2 0 2 2v15zM932 553h14c2 0 2 0 2 2v30c0 2 0 2-2 2h-28a9 9 0 01-1 0 1 1 0 01-1-1v-31l1-2h1zM895 587h-14l-2-1v-32a1 1 0 011-1h30l1 1v32a1 1 0 010 1 12 12 0 01-2 0zM984 705h-31a2 2 0 010-1v-31l1-2h29l2 1v32a9 9 0 01-1 1zM953 593l31-1v33l-1 1-29 1-1-2v-31a2 2 0 010-1zM953 632h31a2 2 0 010 2v31a1 1 0 010 1h-29a3 3 0 01-2 0zM968 587h-14a1 1 0 01-1-1v-32a1 1 0 010-1h30a1 1 0 011 1v32a1 1 0 010 1h-2zM843 570v-16a1 1 0 010-1h29a8 8 0 011 0c1 0 2 0 2 2v31l-2 1a5 5 0 01-1 0h-28l-1-1v-1zM948 649v15c0 2 0 2-2 2h-28a5 5 0 01-1 0 1 1 0 01-1-1v-30c0-3 0-3 3-3h27l2 1v16z" class="d"/></g><g class="c"><path d="M1134 650v15l-1 2h-29c-2 0-2 0-2-2v-31c0-1 0-2 2-2h29l1 2v16zM1066 650v-16l1-2h29c2 0 2 1 2 3v30c0 2-1 2-2 2h-29l-1-2v-15zM1082 706h-15c-1 0-2 0-2-2v-30c0-2 1-2 3-2h27a9 9 0 012 0 1 1 0 011 1v31c0 2-1 2-2 2h-14zM1118 672h15l1 1v32a1 1 0 01-1 1h-30l-1-1v-32a1 1 0 011-1 10 10 0 011 0zM1029 554h31l1 1v31c0 2 0 2-2 2h-29l-1-2v-31-1zM1061 666l-32 1v-33c0-1 0-2 2-2h28c2 0 2 1 2 2v31a2 2 0 010 1zM1061 627h-32a2 2 0 010-2v-31a1 1 0 011-1h29a3 3 0 012 0zM1045 672h15a1 1 0 011 1v32a1 1 0 01-1 1h-30a1 1 0 01-1-1v-32a1 1 0 011-1h1zM1171 689v16a1 1 0 01-1 1h-30l-1-1v-32l1-1a5 5 0 011 0h28l2 1v1zM1066 610v-15c0-2 0-2 2-2h28a6 6 0 011 0 1 1 0 011 1v30c0 3 0 3-3 3h-28l-1-1v-16z" class="d"/></g><g class="c"><path d="M1136 609v-15c0-2 0-2 2-2h29l1 2v31l-1 2h-29c-2 0-2 0-2-2v-16zM1205 609v16c0 2 0 2-2 2h-28c-2 0-2-1-2-3v-30c0-2 0-2 2-2h28c2 0 2 0 2 2v15zM1189 553h14c2 0 2 0 2 2v30c0 2 0 2-2 2h-28a9 9 0 01-1 0 1 1 0 01-1-1v-31l1-2h1zM1152 587h-14l-2-1v-32a1 1 0 011-1h30l1 1v32a1 1 0 010 1 12 12 0 01-2 0zM1241 705h-31a2 2 0 010-1v-31l1-2h29l2 1v32a9 9 0 01-1 1zM1210 593l31-1v33l-1 1-29 1-1-2v-31a2 2 0 010-1zM1210 632h31a2 2 0 010 2v31a1 1 0 010 1h-29a3 3 0 01-2 0zM1225 587h-14a1 1 0 01-1-1v-32a1 1 0 010-1h30a1 1 0 011 1v32a1 1 0 010 1h-2zM1100 570v-16a1 1 0 010-1h29a8 8 0 011 0c1 0 2 0 2 2v31l-2 1a5 5 0 01-1 0h-28l-1-1v-1zM1205 649v15c0 2 0 2-2 2h-28a5 5 0 01-1 0 1 1 0 01-1-1v-30c0-3 0-3 3-3h27l2 1v16z" class="d"/></g></g></g></svg>